<svg width="1044" height="55" viewBox="0 0 1044 55" fill="none" xmlns="http://www.w3.org/2000/svg">
<path d="M45.2129 15.6788L51.9069 20.3798L45.2129 25.4424L39.9534 32.3131L36.1283 25.4424L28 20.3798L36.1283 15.6788L39.9534 7L45.2129 15.6788Z" fill="#EFA2AA"/>
<path d="M1033.33 27.9825L1043.56 35.5563L1033.33 43.7128L1025.28 54.7823L1019.43 43.7128L1007 35.5563L1019.43 27.9825L1025.28 14L1033.33 27.9825Z" fill="#FF5372"/>
<path d="M26.3257 27.9825L36.5634 35.5563L26.3257 43.7128L18.2817 54.7823L12.4316 43.7128L0 35.5563L12.4316 27.9825L18.2817 14L26.3257 27.9825Z" fill="#FF5372"/>
<path d="M1009.21 15.6788L1015.91 20.3798L1009.21 25.4424L1003.95 32.3131L1000.13 25.4424L992 20.3798L1000.13 15.6788L1003.95 7L1009.21 15.6788Z" fill="#EFA2AA"/>
<path d="M117.475 20.35C117.475 21.43 117.22 22.375 116.71 23.185C116.2 23.965 115.555 24.565 114.775 24.985C114.025 25.375 113.29 25.57 112.57 25.57C111.88 25.57 111.22 25.405 110.59 25.075C109.99 24.715 109.6 24.31 109.42 23.86L98.485 42.13C97.645 43.54 96.88 44.545 96.19 45.145C95.53 45.715 94.765 46 93.895 46C91.885 46 90.745 44.71 90.475 42.13L89.035 28.9L79.945 42.13C78.895 43.66 78.04 44.695 77.38 45.235C76.75 45.745 76.015 46 75.175 46C73.345 46 72.235 44.56 71.845 41.68L68.965 21.34C68.875 20.74 68.695 20.26 68.425 19.9C68.185 19.54 67.87 19.195 67.48 18.865C67.21 18.625 67.015 18.43 66.895 18.28C66.775 18.1 66.715 17.905 66.715 17.695C66.565 16.585 67.225 16.03 68.695 16.03H79.9C80.59 16.03 81.1 16.18 81.43 16.48C81.79 16.75 81.955 17.125 81.925 17.605C81.925 17.845 81.85 18.085 81.7 18.325C81.58 18.535 81.445 18.73 81.295 18.91C80.965 19.27 80.725 19.615 80.575 19.945C80.425 20.275 80.38 20.71 80.44 21.25L81.61 32.095L88.36 22.42L88.225 21.34C88.165 20.77 88.015 20.305 87.775 19.945C87.535 19.585 87.205 19.24 86.785 18.91C86.485 18.64 86.275 18.43 86.155 18.28C86.035 18.1 85.975 17.905 85.975 17.695C85.825 16.585 86.485 16.03 87.955 16.03H99.205C99.895 16.03 100.42 16.18 100.78 16.48C101.14 16.75 101.305 17.125 101.275 17.605C101.275 17.995 101.065 18.43 100.645 18.91C100.345 19.27 100.12 19.615 99.97 19.945C99.82 20.275 99.76 20.71 99.79 21.25L100.33 31.06L106.405 20.44C107.395 18.73 108.355 17.545 109.285 16.885C110.215 16.195 111.43 15.85 112.93 15.85C114.28 15.85 115.375 16.255 116.215 17.065C117.055 17.875 117.475 18.97 117.475 20.35ZM140.045 39.79C139.985 39.91 139.955 40.09 139.955 40.33C139.955 40.54 140 40.705 140.09 40.825C140.21 40.945 140.36 41.005 140.54 41.005C140.9 41.005 141.2 40.855 141.44 40.555C141.71 40.225 141.89 40.06 141.98 40.06C142.13 40.06 142.25 40.165 142.34 40.375C142.43 40.555 142.475 40.78 142.475 41.05C142.505 41.92 142.22 42.775 141.62 43.615C141.02 44.425 140.135 45.1 138.965 45.64C137.825 46.15 136.445 46.405 134.825 46.405C132.845 46.405 131.27 45.955 130.1 45.055C128.93 44.125 128.33 42.895 128.3 41.365C128.3 40.255 128.57 39.01 129.11 37.63L131.585 31.15C131.735 30.76 131.81 30.445 131.81 30.205C131.81 29.815 131.675 29.515 131.405 29.305C131.165 29.065 130.865 28.945 130.505 28.945C129.935 28.945 129.35 29.215 128.75 29.755C128.18 30.265 127.715 31.105 127.355 32.275V32.185L124.52 41.32C124.43 41.68 124.385 41.995 124.385 42.265C124.385 42.655 124.46 42.97 124.61 43.21C124.76 43.42 124.97 43.63 125.24 43.84C125.45 44.05 125.6 44.23 125.69 44.38C125.78 44.5 125.795 44.665 125.735 44.875C125.585 45.265 125.285 45.55 124.835 45.73C124.385 45.91 123.695 46 122.765 46H112.505C111.725 46 111.155 45.88 110.795 45.64C110.435 45.37 110.315 45.025 110.435 44.605C110.555 44.245 110.87 43.93 111.38 43.66C111.83 43.42 112.205 43.135 112.505 42.805C112.805 42.475 113.06 41.95 113.27 41.23L120.11 18.775C120.2 18.505 120.245 18.28 120.245 18.1C120.245 17.77 120.155 17.5 119.975 17.29C119.825 17.08 119.615 16.87 119.345 16.66C119.045 16.42 118.82 16.21 118.67 16.03C118.55 15.85 118.535 15.61 118.625 15.31C118.805 14.62 119.75 14.02 121.46 13.51C123.17 13 124.955 12.745 126.815 12.745C128.555 12.745 129.83 13.075 130.64 13.735C131.48 14.395 131.9 15.295 131.9 16.435C131.9 17.095 131.795 17.74 131.585 18.37L129.155 26.29C130.325 24.76 131.555 23.695 132.845 23.095C134.165 22.495 135.59 22.195 137.12 22.195C138.95 22.195 140.42 22.75 141.53 23.86C142.67 24.97 143.24 26.41 143.24 28.18C143.24 29.11 143.09 30.025 142.79 30.925L140.045 39.79ZM159.663 21.97C163.473 21.97 166.233 22.585 167.943 23.815C169.653 25.015 170.508 26.56 170.508 28.45C170.508 29.02 170.448 29.545 170.328 30.025C169.878 32.005 168.618 33.43 166.548 34.3C164.508 35.14 162.093 35.56 159.303 35.56C157.893 35.56 156.573 35.47 155.343 35.29C155.313 36.85 155.733 37.945 156.603 38.575C157.473 39.205 158.688 39.52 160.248 39.52C160.968 39.52 161.658 39.445 162.318 39.295C162.978 39.115 163.818 38.86 164.838 38.53C165.678 38.23 166.248 38.08 166.548 38.08C166.878 38.08 167.043 38.275 167.043 38.665C167.073 39.715 166.683 40.825 165.873 41.995C165.063 43.135 163.863 44.11 162.273 44.92C160.683 45.73 158.763 46.135 156.513 46.135C153.183 46.135 150.453 45.295 148.323 43.615C146.193 41.935 145.128 39.49 145.128 36.28C145.128 35.38 145.248 34.33 145.488 33.13C146.238 29.44 147.873 26.665 150.393 24.805C152.943 22.915 156.033 21.97 159.663 21.97ZM155.658 32.59C155.778 32.62 155.943 32.635 156.153 32.635C157.413 32.635 158.373 32.05 159.033 30.88C159.693 29.71 160.008 28.405 159.978 26.965C159.948 26.125 159.708 25.705 159.258 25.705C158.928 25.705 158.538 25.975 158.088 26.515C157.638 27.025 157.188 27.805 156.738 28.855C156.318 29.905 155.958 31.15 155.658 32.59ZM197.444 39.79C197.384 39.91 197.354 40.09 197.354 40.33C197.354 40.54 197.399 40.705 197.489 40.825C197.609 40.945 197.759 41.005 197.939 41.005C198.299 41.005 198.599 40.855 198.839 40.555C199.109 40.225 199.289 40.06 199.379 40.06C199.529 40.06 199.649 40.165 199.739 40.375C199.829 40.555 199.874 40.78 199.874 41.05C199.904 41.92 199.619 42.775 199.019 43.615C198.419 44.425 197.534 45.1 196.364 45.64C195.224 46.15 193.844 46.405 192.224 46.405C190.244 46.405 188.669 45.955 187.499 45.055C186.329 44.125 185.729 42.895 185.699 41.365C185.699 40.255 185.969 39.01 186.509 37.63L188.984 31.15C189.134 30.76 189.209 30.445 189.209 30.205C189.209 29.815 189.074 29.515 188.804 29.305C188.564 29.065 188.264 28.945 187.904 28.945C187.244 28.945 186.614 29.26 186.014 29.89C185.414 30.49 184.979 31.24 184.709 32.14L181.919 41.32C181.799 41.65 181.739 41.965 181.739 42.265C181.739 42.625 181.814 42.925 181.964 43.165C182.114 43.375 182.324 43.6 182.594 43.84C182.804 44.02 182.954 44.185 183.044 44.335C183.134 44.485 183.149 44.665 183.089 44.875C182.969 45.265 182.684 45.55 182.234 45.73C181.784 45.91 181.079 46 180.119 46H169.859C169.079 46 168.524 45.88 168.194 45.64C167.834 45.37 167.699 45.025 167.789 44.605C167.909 44.245 168.224 43.93 168.734 43.66C169.184 43.42 169.559 43.135 169.859 42.805C170.159 42.475 170.414 41.95 170.624 41.23L174.629 28.225C174.689 28.075 174.719 27.865 174.719 27.595C174.719 27.265 174.644 27.01 174.494 26.83C174.374 26.65 174.164 26.425 173.864 26.155C173.564 25.915 173.354 25.705 173.234 25.525C173.114 25.345 173.099 25.105 173.189 24.805C173.369 24.115 174.314 23.515 176.024 23.005C177.734 22.465 179.519 22.195 181.379 22.195C182.879 22.195 184.064 22.615 184.934 23.455C185.804 24.265 186.194 25.405 186.104 26.875C187.334 25.105 188.639 23.89 190.019 23.23C191.399 22.54 192.899 22.195 194.519 22.195C196.349 22.195 197.819 22.75 198.929 23.86C200.069 24.97 200.639 26.41 200.639 28.18C200.639 29.11 200.489 30.025 200.189 30.925L197.444 39.79ZM230.79 16.03C231.42 16.03 231.9 16.135 232.23 16.345C232.59 16.525 232.77 16.795 232.77 17.155C232.77 17.305 232.725 17.5 232.635 17.74C232.545 17.95 232.41 18.145 232.23 18.325C232.08 18.475 231.93 18.595 231.78 18.685C231.66 18.745 231.57 18.805 231.51 18.865C231.03 19.135 230.64 19.435 230.34 19.765C230.04 20.095 229.785 20.605 229.575 21.295L224.13 40.69C224.01 41.08 223.95 41.455 223.95 41.815C223.95 42.175 223.995 42.475 224.085 42.715C224.205 42.955 224.37 43.21 224.58 43.48C224.85 43.87 224.985 44.185 224.985 44.425C224.985 44.485 224.955 44.635 224.895 44.875C224.775 45.295 224.505 45.595 224.085 45.775C223.665 45.925 223.035 46 222.195 46H211.62C210.99 46 210.51 45.895 210.18 45.685C209.82 45.475 209.64 45.19 209.64 44.83C209.64 44.65 209.685 44.455 209.775 44.245C209.895 43.915 210.09 43.66 210.36 43.48C210.63 43.3 210.795 43.195 210.855 43.165C211.335 42.865 211.725 42.565 212.025 42.265C212.325 41.935 212.58 41.41 212.79 40.69L218.28 21.295C218.4 20.905 218.46 20.53 218.46 20.17C218.46 19.84 218.4 19.57 218.28 19.36C218.19 19.12 218.055 18.85 217.875 18.55C217.605 18.16 217.47 17.845 217.47 17.605C217.47 17.515 217.5 17.35 217.56 17.11C217.68 16.72 217.935 16.45 218.325 16.3C218.745 16.12 219.375 16.03 220.215 16.03H230.79ZM239.443 14.725C240.763 14.725 241.903 15.22 242.863 16.21C243.823 17.2 244.303 18.505 244.303 20.125C244.303 20.755 244.213 21.43 244.033 22.15C243.703 23.5 243.103 24.67 242.233 25.66C241.393 26.62 240.418 27.355 239.308 27.865C238.198 28.345 237.118 28.585 236.068 28.585C234.838 28.585 234.223 28.225 234.223 27.505C234.223 27.325 234.238 27.19 234.268 27.1C234.358 26.77 234.538 26.5 234.808 26.29C235.078 26.05 235.498 25.735 236.068 25.345C236.728 24.865 237.208 24.475 237.508 24.175C237.808 23.875 237.958 23.515 237.958 23.095C237.958 22.825 237.868 22.555 237.688 22.285C237.538 22.015 237.283 21.655 236.923 21.205C236.443 20.575 236.083 20.05 235.843 19.63C235.603 19.21 235.483 18.73 235.483 18.19C235.483 17.86 235.528 17.545 235.618 17.245C235.858 16.435 236.308 15.82 236.968 15.4C237.628 14.95 238.453 14.725 239.443 14.725ZM285.465 39.79C285.405 39.91 285.375 40.09 285.375 40.33C285.375 40.54 285.42 40.705 285.51 40.825C285.63 40.945 285.78 41.005 285.96 41.005C286.32 41.005 286.62 40.855 286.86 40.555C287.13 40.225 287.31 40.06 287.4 40.06C287.55 40.06 287.67 40.165 287.76 40.375C287.85 40.555 287.895 40.78 287.895 41.05C287.925 41.92 287.64 42.775 287.04 43.615C286.44 44.425 285.555 45.1 284.385 45.64C283.245 46.15 281.865 46.405 280.245 46.405C278.265 46.405 276.69 45.955 275.52 45.055C274.35 44.125 273.75 42.895 273.72 41.365C273.72 40.255 273.99 39.01 274.53 37.63L277.005 31.15C277.155 30.76 277.23 30.445 277.23 30.205C277.23 29.815 277.095 29.515 276.825 29.305C276.585 29.065 276.285 28.945 275.925 28.945C275.415 28.945 274.89 29.17 274.35 29.62C273.81 30.07 273.33 30.775 272.91 31.735L270.435 39.79C270.375 39.91 270.345 40.09 270.345 40.33C270.345 40.54 270.39 40.705 270.48 40.825C270.6 40.945 270.75 41.005 270.93 41.005C271.29 41.005 271.59 40.855 271.83 40.555C272.1 40.225 272.28 40.06 272.37 40.06C272.52 40.06 272.64 40.165 272.73 40.375C272.82 40.555 272.865 40.78 272.865 41.05C272.895 41.92 272.61 42.775 272.01 43.615C271.41 44.425 270.525 45.1 269.355 45.64C268.215 46.15 266.835 46.405 265.215 46.405C263.235 46.405 261.66 45.955 260.49 45.055C259.32 44.125 258.72 42.895 258.69 41.365C258.69 40.255 258.96 39.01 259.5 37.63L261.975 31.15C262.125 30.76 262.2 30.445 262.2 30.205C262.2 29.815 262.065 29.515 261.795 29.305C261.555 29.065 261.255 28.945 260.895 28.945C260.385 28.945 259.86 29.17 259.32 29.62C258.78 30.04 258.33 30.73 257.97 31.69L255 41.32C254.88 41.65 254.82 41.965 254.82 42.265C254.82 42.625 254.895 42.925 255.045 43.165C255.195 43.375 255.405 43.6 255.675 43.84C255.885 44.02 256.035 44.185 256.125 44.335C256.215 44.485 256.23 44.665 256.17 44.875C256.05 45.265 255.765 45.55 255.315 45.73C254.865 45.91 254.16 46 253.2 46H242.94C242.16 46 241.605 45.88 241.275 45.64C240.915 45.37 240.78 45.025 240.87 44.605C240.99 44.245 241.305 43.93 241.815 43.66C242.265 43.42 242.64 43.135 242.94 42.805C243.24 42.475 243.495 41.95 243.705 41.23L247.71 28.225C247.77 28.075 247.8 27.865 247.8 27.595C247.8 27.265 247.725 27.01 247.575 26.83C247.455 26.65 247.245 26.425 246.945 26.155C246.645 25.915 246.435 25.705 246.315 25.525C246.195 25.345 246.18 25.105 246.27 24.805C246.45 24.115 247.395 23.515 249.105 23.005C250.815 22.465 252.6 22.195 254.46 22.195C255.93 22.195 257.085 22.6 257.925 23.41C258.795 24.22 259.215 25.33 259.185 26.74C260.415 25.03 261.705 23.845 263.055 23.185C264.435 22.525 265.92 22.195 267.51 22.195C269.25 22.195 270.66 22.705 271.74 23.725C272.85 24.715 273.465 26.02 273.585 27.64C274.875 25.6 276.255 24.19 277.725 23.41C279.195 22.6 280.8 22.195 282.54 22.195C284.37 22.195 285.84 22.75 286.95 23.86C288.09 24.97 288.66 26.41 288.66 28.18C288.66 29.11 288.51 30.025 288.21 30.925L285.465 39.79ZM326.687 39.79C326.627 39.91 326.597 40.09 326.597 40.33C326.597 40.54 326.642 40.705 326.732 40.825C326.852 40.945 327.002 41.005 327.182 41.005C327.542 41.005 327.842 40.855 328.082 40.555C328.352 40.225 328.532 40.06 328.622 40.06C328.772 40.06 328.892 40.165 328.982 40.375C329.072 40.555 329.117 40.78 329.117 41.05C329.147 41.92 328.862 42.775 328.262 43.615C327.662 44.425 326.777 45.1 325.607 45.64C324.467 46.15 323.087 46.405 321.467 46.405C319.487 46.405 317.912 45.955 316.742 45.055C315.572 44.125 314.972 42.895 314.942 41.365C314.942 40.255 315.212 39.01 315.752 37.63L318.227 31.15C318.377 30.76 318.452 30.445 318.452 30.205C318.452 29.815 318.317 29.515 318.047 29.305C317.807 29.065 317.507 28.945 317.147 28.945C316.487 28.945 315.857 29.26 315.257 29.89C314.657 30.49 314.222 31.24 313.952 32.14L311.162 41.32C311.042 41.65 310.982 41.965 310.982 42.265C310.982 42.625 311.057 42.925 311.207 43.165C311.357 43.375 311.567 43.6 311.837 43.84C312.047 44.02 312.197 44.185 312.287 44.335C312.377 44.485 312.392 44.665 312.332 44.875C312.212 45.265 311.927 45.55 311.477 45.73C311.027 45.91 310.322 46 309.362 46H299.102C298.322 46 297.767 45.88 297.437 45.64C297.077 45.37 296.942 45.025 297.032 44.605C297.152 44.245 297.467 43.93 297.977 43.66C298.427 43.42 298.802 43.135 299.102 42.805C299.402 42.475 299.657 41.95 299.867 41.23L303.872 28.225C303.932 28.075 303.962 27.865 303.962 27.595C303.962 27.265 303.887 27.01 303.737 26.83C303.617 26.65 303.407 26.425 303.107 26.155C302.807 25.915 302.597 25.705 302.477 25.525C302.357 25.345 302.342 25.105 302.432 24.805C302.612 24.115 303.557 23.515 305.267 23.005C306.977 22.465 308.762 22.195 310.622 22.195C312.122 22.195 313.307 22.615 314.177 23.455C315.047 24.265 315.437 25.405 315.347 26.875C316.577 25.105 317.882 23.89 319.262 23.23C320.642 22.54 322.142 22.195 323.762 22.195C325.592 22.195 327.062 22.75 328.172 23.86C329.312 24.97 329.882 26.41 329.882 28.18C329.882 29.11 329.732 30.025 329.432 30.925L326.687 39.79ZM348.459 22.195C352.539 22.195 355.539 23.02 357.459 24.67C359.409 26.32 360.384 28.48 360.384 31.15C360.384 32.05 360.264 33.055 360.024 34.165C359.454 36.625 358.389 38.785 356.829 40.645C355.269 42.475 353.349 43.9 351.069 44.92C348.819 45.91 346.374 46.405 343.734 46.405C339.564 46.405 336.474 45.58 334.464 43.93C332.484 42.25 331.494 40.03 331.494 37.27C331.494 36.34 331.614 35.305 331.854 34.165C332.424 31.825 333.504 29.755 335.094 27.955C336.714 26.125 338.679 24.715 340.989 23.725C343.329 22.705 345.819 22.195 348.459 22.195ZM348.324 26.2C347.694 26.2 347.019 26.77 346.299 27.91C345.609 29.02 344.784 31.135 343.824 34.255C342.864 37.375 342.384 39.565 342.384 40.825C342.384 41.485 342.489 41.935 342.699 42.175C342.909 42.385 343.194 42.49 343.554 42.49C344.184 42.55 344.829 42.01 345.489 40.87C346.179 39.73 347.034 37.51 348.054 34.21C348.984 31.3 349.449 29.185 349.449 27.865C349.449 27.235 349.344 26.8 349.134 26.56C348.954 26.32 348.684 26.2 348.324 26.2ZM380.69 22.78C381.26 22.78 381.695 22.9 381.995 23.14C382.325 23.38 382.49 23.71 382.49 24.13C382.49 24.25 382.46 24.46 382.4 24.76C382.01 26.08 381.11 26.74 379.7 26.74H377.09L373.715 37.855C373.565 38.305 373.49 38.77 373.49 39.25C373.49 39.79 373.64 40.165 373.94 40.375C374.24 40.585 374.66 40.69 375.2 40.69C375.68 40.69 376.28 40.63 377 40.51C377.36 40.42 377.675 40.375 377.945 40.375C378.155 40.375 378.305 40.45 378.395 40.6C378.515 40.72 378.575 40.885 378.575 41.095C378.605 41.695 378.155 42.43 377.225 43.3C376.325 44.14 375.095 44.875 373.535 45.505C371.975 46.105 370.25 46.405 368.36 46.405C366.32 46.405 364.685 45.94 363.455 45.01C362.225 44.08 361.61 42.805 361.61 41.185C361.61 40.435 361.73 39.715 361.97 39.025L364.85 30.115C365 29.605 365.075 29.2 365.075 28.9C365.075 28.3 364.925 27.79 364.625 27.37C364.355 26.95 363.965 26.515 363.455 26.065C363.005 25.645 362.69 25.3 362.51 25.03C362.33 24.73 362.285 24.385 362.375 23.995C362.495 23.605 362.75 23.305 363.14 23.095C363.53 22.885 364.145 22.78 364.985 22.78H367.505L370.34 19.945C371.33 18.955 372.23 18.265 373.04 17.875C373.88 17.485 374.96 17.29 376.28 17.29C378.17 17.29 379.115 18.01 379.115 19.45C379.115 19.9 379.055 20.32 378.935 20.71L378.305 22.78H380.69ZM405.255 21.97C407.085 21.97 408.69 22.24 410.07 22.78C411.45 23.29 412.515 24.01 413.265 24.94C414.045 25.84 414.435 26.845 414.435 27.955C414.435 29.155 414.015 30.145 413.175 30.925C412.365 31.705 411.255 32.095 409.845 32.095C408.405 32.095 407.28 31.735 406.47 31.015C405.66 30.265 405.255 29.26 405.255 28C405.255 27.4 405.345 26.77 405.525 26.11C404.265 26.44 403.14 27.1 402.15 28.09C401.19 29.05 400.545 30.325 400.215 31.915C400.035 32.815 399.945 33.625 399.945 34.345C399.945 35.965 400.395 37.195 401.295 38.035C402.195 38.875 403.485 39.295 405.165 39.295C406.125 39.295 406.95 39.205 407.64 39.025C408.33 38.815 409.035 38.545 409.755 38.215C410.355 37.915 410.79 37.765 411.06 37.765C411.24 37.765 411.36 37.81 411.42 37.9C411.48 37.96 411.51 38.11 411.51 38.35C411.54 39.46 411.075 40.63 410.115 41.86C409.185 43.06 407.88 44.08 406.2 44.92C404.55 45.73 402.69 46.135 400.62 46.135C398.46 46.135 396.54 45.745 394.86 44.965C393.21 44.155 391.92 43.015 390.99 41.545C390.09 40.045 389.64 38.305 389.64 36.325C389.64 35.395 389.76 34.36 390 33.22C390.81 29.5 392.595 26.695 395.355 24.805C398.145 22.915 401.445 21.97 405.255 21.97ZM430.725 22.195C434.805 22.195 437.805 23.02 439.725 24.67C441.675 26.32 442.65 28.48 442.65 31.15C442.65 32.05 442.53 33.055 442.29 34.165C441.72 36.625 440.655 38.785 439.095 40.645C437.535 42.475 435.615 43.9 433.335 44.92C431.085 45.91 428.64 46.405 426 46.405C421.83 46.405 418.74 45.58 416.73 43.93C414.75 42.25 413.76 40.03 413.76 37.27C413.76 36.34 413.88 35.305 414.12 34.165C414.69 31.825 415.77 29.755 417.36 27.955C418.98 26.125 420.945 24.715 423.255 23.725C425.595 22.705 428.085 22.195 430.725 22.195ZM430.59 26.2C429.96 26.2 429.285 26.77 428.565 27.91C427.875 29.02 427.05 31.135 426.09 34.255C425.13 37.375 424.65 39.565 424.65 40.825C424.65 41.485 424.755 41.935 424.965 42.175C425.175 42.385 425.46 42.49 425.82 42.49C426.45 42.55 427.095 42.01 427.755 40.87C428.445 39.73 429.3 37.51 430.32 34.21C431.25 31.3 431.715 29.185 431.715 27.865C431.715 27.235 431.61 26.8 431.4 26.56C431.22 26.32 430.95 26.2 430.59 26.2ZM467.996 39.52C467.936 39.76 467.906 39.925 467.906 40.015C467.906 40.225 467.966 40.39 468.086 40.51C468.206 40.63 468.356 40.69 468.536 40.69C468.896 40.69 469.196 40.54 469.436 40.24C469.706 39.91 469.886 39.745 469.976 39.745C470.126 39.745 470.246 39.85 470.336 40.06C470.426 40.27 470.471 40.51 470.471 40.78C470.501 41.59 470.186 42.415 469.526 43.255C468.896 44.095 468.041 44.785 466.961 45.325C465.881 45.865 464.711 46.135 463.451 46.135C461.951 46.135 460.646 45.85 459.536 45.28C458.426 44.71 457.661 43.96 457.241 43.03C456.431 44.08 455.501 44.86 454.451 45.37C453.401 45.88 452.291 46.135 451.121 46.135C449.741 46.135 448.451 45.79 447.251 45.1C446.081 44.41 445.136 43.435 444.416 42.175C443.726 40.885 443.381 39.43 443.381 37.81C443.381 35.08 443.891 32.515 444.911 30.115C445.961 27.685 447.416 25.735 449.276 24.265C451.136 22.765 453.251 22.015 455.621 22.015C456.911 22.015 458.006 22.165 458.906 22.465C459.836 22.765 460.676 23.215 461.426 23.815L462.956 18.775C463.046 18.505 463.091 18.28 463.091 18.1C463.091 17.77 463.001 17.5 462.821 17.29C462.671 17.08 462.461 16.87 462.191 16.66C461.891 16.42 461.666 16.21 461.516 16.03C461.396 15.85 461.381 15.61 461.471 15.31C461.651 14.62 462.596 14.02 464.306 13.51C466.016 13 467.801 12.745 469.661 12.745C471.401 12.745 472.676 13.075 473.486 13.735C474.326 14.395 474.746 15.295 474.746 16.435C474.746 17.095 474.641 17.74 474.431 18.37L467.996 39.52ZM460.481 26.875C460.001 26.455 459.476 26.245 458.906 26.245C458.036 26.245 457.181 26.89 456.341 28.18C455.501 29.47 454.826 31.03 454.316 32.86C453.806 34.69 453.566 36.34 453.596 37.81C453.596 39.46 454.136 40.285 455.216 40.285C455.606 40.285 455.936 40.135 456.206 39.835C456.476 39.505 456.731 38.98 456.971 38.26L460.481 26.875ZM484.163 22.195C485.903 22.195 487.178 22.525 487.988 23.185C488.798 23.845 489.203 24.745 489.203 25.885C489.203 26.575 489.098 27.235 488.888 27.865L484.748 41.32C484.658 41.68 484.613 41.995 484.613 42.265C484.613 42.655 484.688 42.97 484.838 43.21C484.988 43.42 485.198 43.63 485.468 43.84C485.678 44.05 485.828 44.23 485.918 44.38C486.008 44.5 486.023 44.665 485.963 44.875C485.813 45.265 485.513 45.55 485.063 45.73C484.613 45.91 483.923 46 482.993 46H472.733C471.953 46 471.383 45.88 471.023 45.64C470.663 45.37 470.543 45.025 470.663 44.605C470.783 44.245 471.098 43.93 471.608 43.66C472.058 43.42 472.433 43.135 472.733 42.805C473.033 42.475 473.288 41.95 473.498 41.23L477.413 28.225C477.503 27.955 477.548 27.73 477.548 27.55C477.548 27.22 477.473 26.965 477.323 26.785C477.173 26.575 476.948 26.365 476.648 26.155C476.348 25.915 476.138 25.705 476.018 25.525C475.898 25.345 475.883 25.105 475.973 24.805C476.153 24.115 477.098 23.515 478.808 23.005C480.518 22.465 482.303 22.195 484.163 22.195ZM487.178 12.25C488.348 12.25 489.323 12.64 490.103 13.42C490.883 14.17 491.273 15.1 491.273 16.21C491.273 16.99 491.063 17.755 490.643 18.505C490.253 19.255 489.683 19.87 488.933 20.35C488.213 20.8 487.403 21.025 486.503 21.025C485.363 21.025 484.403 20.65 483.623 19.9C482.873 19.12 482.483 18.16 482.453 17.02C482.453 16.27 482.648 15.535 483.038 14.815C483.428 14.065 483.983 13.45 484.703 12.97C485.423 12.49 486.248 12.25 487.178 12.25ZM516.663 39.79C516.603 39.91 516.573 40.09 516.573 40.33C516.573 40.54 516.618 40.705 516.708 40.825C516.828 40.945 516.978 41.005 517.158 41.005C517.518 41.005 517.818 40.855 518.058 40.555C518.328 40.225 518.508 40.06 518.598 40.06C518.748 40.06 518.868 40.165 518.958 40.375C519.048 40.555 519.093 40.78 519.093 41.05C519.123 41.92 518.838 42.775 518.238 43.615C517.638 44.425 516.753 45.1 515.583 45.64C514.443 46.15 513.063 46.405 511.443 46.405C509.463 46.405 507.888 45.955 506.718 45.055C505.548 44.125 504.948 42.895 504.918 41.365C504.918 40.255 505.188 39.01 505.728 37.63L508.203 31.15C508.353 30.76 508.428 30.445 508.428 30.205C508.428 29.815 508.293 29.515 508.023 29.305C507.783 29.065 507.483 28.945 507.123 28.945C506.463 28.945 505.833 29.26 505.233 29.89C504.633 30.49 504.198 31.24 503.928 32.14L501.138 41.32C501.018 41.65 500.958 41.965 500.958 42.265C500.958 42.625 501.033 42.925 501.183 43.165C501.333 43.375 501.543 43.6 501.813 43.84C502.023 44.02 502.173 44.185 502.263 44.335C502.353 44.485 502.368 44.665 502.308 44.875C502.188 45.265 501.903 45.55 501.453 45.73C501.003 45.91 500.298 46 499.338 46H489.078C488.298 46 487.743 45.88 487.413 45.64C487.053 45.37 486.918 45.025 487.008 44.605C487.128 44.245 487.443 43.93 487.953 43.66C488.403 43.42 488.778 43.135 489.078 42.805C489.378 42.475 489.633 41.95 489.843 41.23L493.848 28.225C493.908 28.075 493.938 27.865 493.938 27.595C493.938 27.265 493.863 27.01 493.713 26.83C493.593 26.65 493.383 26.425 493.083 26.155C492.783 25.915 492.573 25.705 492.453 25.525C492.333 25.345 492.318 25.105 492.408 24.805C492.588 24.115 493.533 23.515 495.243 23.005C496.953 22.465 498.738 22.195 500.598 22.195C502.098 22.195 503.283 22.615 504.153 23.455C505.023 24.265 505.413 25.405 505.323 26.875C506.553 25.105 507.858 23.89 509.238 23.23C510.618 22.54 512.118 22.195 513.738 22.195C515.568 22.195 517.038 22.75 518.148 23.86C519.288 24.97 519.858 26.41 519.858 28.18C519.858 29.11 519.708 30.025 519.408 30.925L516.663 39.79ZM548.29 14.86C549.25 14.86 550.18 15.07 551.08 15.49C552.01 15.88 552.76 16.435 553.33 17.155C553.93 17.845 554.23 18.595 554.23 19.405C554.23 21.175 553.03 22.06 550.63 22.06C549.94 22.06 549.4 22.015 549.01 21.925C548.65 21.805 548.215 21.625 547.705 21.385C547.615 21.595 547.57 21.895 547.57 22.285C547.57 22.765 547.645 23.335 547.795 23.995C547.975 24.655 548.185 25.27 548.425 25.84C549.055 26.77 549.37 27.88 549.37 29.17C549.37 29.74 549.295 30.43 549.145 31.24C548.785 32.8 547.99 34.225 546.76 35.515C545.56 36.805 544 37.825 542.08 38.575C540.19 39.295 538.105 39.655 535.825 39.655C534.085 39.655 532.45 39.535 530.92 39.295C530.47 39.685 530.245 40.165 530.245 40.735C530.245 41.125 530.425 41.455 530.785 41.725C531.145 41.965 531.745 42.085 532.585 42.085H539.335C541.645 42.085 543.445 42.49 544.735 43.3C546.025 44.08 546.67 45.205 546.67 46.675C546.67 47.215 546.58 47.77 546.4 48.34C546.04 49.51 545.215 50.59 543.925 51.58C542.665 52.6 540.88 53.425 538.57 54.055C536.26 54.685 533.455 55 530.155 55C527.215 55 524.725 54.745 522.685 54.235C520.645 53.725 519.13 53.02 518.14 52.12C517.12 51.25 516.61 50.275 516.61 49.195C516.61 48.955 516.67 48.595 516.79 48.115C517.06 47.245 517.675 46.54 518.635 46C519.565 45.43 521.11 45.055 523.27 44.875C522.55 44.185 522.19 43.36 522.19 42.4C522.19 42.07 522.235 41.725 522.325 41.365C522.805 39.805 524.215 38.65 526.555 37.9C524.305 36.67 523.18 34.87 523.18 32.5C523.18 31.84 523.27 31.15 523.45 30.43C523.81 28.87 524.605 27.46 525.835 26.2C527.065 24.91 528.64 23.89 530.56 23.14C532.48 22.39 534.58 22.015 536.86 22.015C540.43 22.015 543.235 22.48 545.275 23.41C544.825 22.72 544.465 21.985 544.195 21.205C543.955 20.395 543.835 19.66 543.835 19C543.835 17.86 544.195 16.885 544.915 16.075C545.665 15.265 546.79 14.86 548.29 14.86ZM538.525 30.835C539.005 29.305 539.245 28.135 539.245 27.325C539.245 26.305 538.81 25.795 537.94 25.795C537.19 25.795 536.53 26.17 535.96 26.92C535.42 27.64 534.865 28.945 534.295 30.835C533.815 32.395 533.575 33.58 533.575 34.39C533.575 35.38 533.995 35.875 534.835 35.875C535.585 35.875 536.245 35.5 536.815 34.75C537.385 34 537.955 32.695 538.525 30.835ZM529.57 46.63C528.73 46.63 527.965 46.585 527.275 46.495C526.915 46.945 526.735 47.545 526.735 48.295C526.765 49.045 527.065 49.585 527.635 49.915C528.235 50.245 529.15 50.41 530.38 50.41C531.88 50.41 533.095 50.185 534.025 49.735C534.985 49.285 535.465 48.64 535.465 47.8C535.465 47.44 535.33 47.155 535.06 46.945C534.79 46.735 534.4 46.63 533.89 46.63H529.57ZM553.904 36.91C555.284 36.91 556.439 37.39 557.369 38.35C558.299 39.31 558.764 40.585 558.764 42.175C558.764 44.065 558.209 45.835 557.099 47.485C556.019 49.135 554.699 50.455 553.139 51.445C551.579 52.435 550.154 52.93 548.864 52.93C547.874 52.93 547.379 52.585 547.379 51.895C547.379 51.505 547.544 51.13 547.874 50.77C548.204 50.41 548.684 49.99 549.314 49.51C549.974 49 550.484 48.535 550.844 48.115C551.204 47.725 551.384 47.305 551.384 46.855C551.384 46.495 551.144 46.015 550.664 45.415C550.214 44.815 549.869 44.275 549.629 43.795C549.419 43.285 549.314 42.67 549.314 41.95C549.314 40.57 549.749 39.385 550.619 38.395C551.519 37.405 552.614 36.91 553.904 36.91ZM595.538 22.195C596.858 22.195 597.908 22.735 598.688 23.815C599.498 24.865 599.903 26.305 599.903 28.135C599.903 29.725 599.618 31.435 599.048 33.265C597.938 36.955 596.153 40.435 593.693 43.705C591.263 46.975 588.458 49.6 585.278 51.58C582.128 53.56 578.978 54.55 575.828 54.55C574.268 54.55 572.918 54.28 571.778 53.74C570.668 53.2 569.828 52.48 569.258 51.58C568.658 50.68 568.358 49.72 568.358 48.7C568.358 48.25 568.433 47.755 568.583 47.215C568.853 46.375 569.303 45.73 569.933 45.28C570.563 44.83 571.313 44.605 572.183 44.605C573.563 44.605 574.688 45.07 575.558 46C576.458 46.96 577.028 48.265 577.268 49.915C579.188 49.825 580.958 49 582.578 47.44C581.048 47.17 579.908 46.66 579.158 45.91C578.438 45.13 577.943 43.93 577.673 42.31L575.873 31.285C575.783 30.715 575.648 30.325 575.468 30.115C575.318 29.875 575.108 29.755 574.838 29.755C574.628 29.755 574.373 29.86 574.073 30.07C573.803 30.28 573.608 30.385 573.488 30.385C573.248 30.385 573.128 30.13 573.128 29.62C573.128 29.2 573.203 28.75 573.353 28.27C573.893 26.56 574.898 25.12 576.368 23.95C577.838 22.75 579.548 22.15 581.498 22.15C583.418 22.15 584.828 22.72 585.728 23.86C586.658 25 587.258 26.755 587.528 29.125L588.878 39.025C588.968 39.775 589.238 40.15 589.688 40.15C590.228 40.15 590.858 39.67 591.578 38.71C592.298 37.72 593.003 36.325 593.693 34.525C592.793 33.715 592.103 32.785 591.623 31.735C591.143 30.685 590.903 29.56 590.903 28.36C590.903 27.43 591.023 26.59 591.263 25.84C591.623 24.64 592.178 23.74 592.928 23.14C593.708 22.51 594.578 22.195 595.538 22.195ZM617.009 22.195C621.089 22.195 624.089 23.02 626.009 24.67C627.959 26.32 628.934 28.48 628.934 31.15C628.934 32.05 628.814 33.055 628.574 34.165C628.004 36.625 626.939 38.785 625.379 40.645C623.819 42.475 621.899 43.9 619.619 44.92C617.369 45.91 614.924 46.405 612.284 46.405C608.114 46.405 605.024 45.58 603.014 43.93C601.034 42.25 600.044 40.03 600.044 37.27C600.044 36.34 600.164 35.305 600.404 34.165C600.974 31.825 602.054 29.755 603.644 27.955C605.264 26.125 607.229 24.715 609.539 23.725C611.879 22.705 614.369 22.195 617.009 22.195ZM616.874 26.2C616.244 26.2 615.569 26.77 614.849 27.91C614.159 29.02 613.334 31.135 612.374 34.255C611.414 37.375 610.934 39.565 610.934 40.825C610.934 41.485 611.039 41.935 611.249 42.175C611.459 42.385 611.744 42.49 612.104 42.49C612.734 42.55 613.379 42.01 614.039 40.87C614.729 39.73 615.584 37.51 616.604 34.21C617.534 31.3 617.999 29.185 617.999 27.865C617.999 27.235 617.894 26.8 617.684 26.56C617.504 26.32 617.234 26.2 616.874 26.2ZM655.855 39.79C655.795 40.03 655.765 40.21 655.765 40.33C655.765 40.54 655.81 40.705 655.9 40.825C656.02 40.945 656.17 41.005 656.35 41.005C656.71 41.005 657.01 40.855 657.25 40.555C657.52 40.225 657.7 40.06 657.79 40.06C657.94 40.06 658.06 40.165 658.15 40.375C658.27 40.555 658.33 40.78 658.33 41.05C658.36 41.89 658.06 42.73 657.43 43.57C656.8 44.38 655.915 45.055 654.775 45.595C653.635 46.135 652.36 46.405 650.95 46.405C649.18 46.405 647.77 46.045 646.72 45.325C645.67 44.605 644.995 43.66 644.695 42.49C643.615 43.69 642.415 44.605 641.095 45.235C639.805 45.835 638.485 46.135 637.135 46.135C635.035 46.135 633.265 45.625 631.825 44.605C630.415 43.555 629.71 42.1 629.71 40.24C629.71 39.4 629.86 38.53 630.16 37.63L633.04 28.225C633.13 27.955 633.175 27.73 633.175 27.55C633.175 27.22 633.1 26.965 632.95 26.785C632.8 26.575 632.575 26.365 632.275 26.155C631.975 25.915 631.765 25.705 631.645 25.525C631.525 25.345 631.51 25.105 631.6 24.805C631.78 24.115 632.725 23.515 634.435 23.005C636.145 22.465 637.93 22.195 639.79 22.195C641.53 22.195 642.805 22.525 643.615 23.185C644.425 23.845 644.83 24.745 644.83 25.885C644.83 26.575 644.725 27.235 644.515 27.865L641.68 37.225C641.56 37.555 641.5 37.87 641.5 38.17C641.5 38.59 641.62 38.905 641.86 39.115C642.1 39.325 642.415 39.43 642.805 39.43C643.375 39.43 643.84 39.265 644.2 38.935C644.56 38.605 644.92 38.05 645.28 37.27L648.025 28.225C648.115 27.955 648.16 27.73 648.16 27.55C648.16 27.22 648.085 26.965 647.935 26.785C647.785 26.575 647.575 26.365 647.305 26.155C647.005 25.915 646.795 25.705 646.675 25.525C646.555 25.345 646.54 25.105 646.63 24.805C646.78 24.115 647.71 23.515 649.42 23.005C651.13 22.465 652.915 22.195 654.775 22.195C656.515 22.195 657.79 22.525 658.6 23.185C659.44 23.845 659.86 24.73 659.86 25.84C659.86 26.41 659.74 27.085 659.5 27.865L655.855 39.79ZM685.318 21.97C687.148 21.97 688.753 22.24 690.133 22.78C691.513 23.29 692.578 24.01 693.328 24.94C694.108 25.84 694.498 26.845 694.498 27.955C694.498 29.155 694.078 30.145 693.238 30.925C692.428 31.705 691.318 32.095 689.908 32.095C688.468 32.095 687.343 31.735 686.533 31.015C685.723 30.265 685.318 29.26 685.318 28C685.318 27.4 685.408 26.77 685.588 26.11C684.328 26.44 683.203 27.1 682.213 28.09C681.253 29.05 680.608 30.325 680.278 31.915C680.098 32.815 680.008 33.625 680.008 34.345C680.008 35.965 680.458 37.195 681.358 38.035C682.258 38.875 683.548 39.295 685.228 39.295C686.188 39.295 687.013 39.205 687.703 39.025C688.393 38.815 689.098 38.545 689.818 38.215C690.418 37.915 690.853 37.765 691.123 37.765C691.303 37.765 691.423 37.81 691.483 37.9C691.543 37.96 691.573 38.11 691.573 38.35C691.603 39.46 691.138 40.63 690.178 41.86C689.248 43.06 687.943 44.08 686.263 44.92C684.613 45.73 682.753 46.135 680.683 46.135C678.523 46.135 676.603 45.745 674.923 44.965C673.273 44.155 671.983 43.015 671.053 41.545C670.153 40.045 669.703 38.305 669.703 36.325C669.703 35.395 669.823 34.36 670.063 33.22C670.873 29.5 672.658 26.695 675.418 24.805C678.208 22.915 681.508 21.97 685.318 21.97ZM709.438 22.195C712.888 22.195 715.648 22.84 717.718 24.13C719.788 25.39 720.823 27.325 720.823 29.935C720.823 30.925 720.643 32.05 720.283 33.31L718.438 39.52C718.408 39.64 718.393 39.79 718.393 39.97C718.393 40.45 718.588 40.69 718.978 40.69C719.338 40.69 719.638 40.54 719.878 40.24C720.148 39.91 720.328 39.745 720.418 39.745C720.568 39.745 720.688 39.85 720.778 40.06C720.898 40.27 720.958 40.51 720.958 40.78C720.988 41.59 720.673 42.415 720.013 43.255C719.383 44.095 718.528 44.785 717.448 45.325C716.368 45.865 715.183 46.135 713.893 46.135C712.333 46.135 710.998 45.85 709.888 45.28C708.778 44.71 708.013 43.87 707.593 42.76C706.693 43.84 705.628 44.68 704.398 45.28C703.168 45.85 701.848 46.135 700.438 46.135C698.848 46.135 697.513 45.835 696.433 45.235C695.353 44.605 694.543 43.81 694.003 42.85C693.493 41.86 693.238 40.825 693.238 39.745C693.238 39.265 693.283 38.8 693.373 38.35C693.853 36.28 694.888 34.72 696.478 33.67C698.098 32.62 700.018 32.095 702.238 32.095C704.728 32.095 707.173 32.485 709.573 33.265L710.698 30.295C711.088 29.035 711.283 28.06 711.283 27.37C711.253 26.65 711.013 26.11 710.563 25.75C710.113 25.39 709.423 25.21 708.493 25.21C708.673 25.69 708.763 26.185 708.763 26.695C708.763 27.805 708.343 28.765 707.503 29.575C706.663 30.385 705.463 30.79 703.903 30.79C702.433 30.79 701.278 30.475 700.438 29.845C699.628 29.185 699.223 28.375 699.223 27.415C699.223 25.915 700.063 24.67 701.743 23.68C703.423 22.69 705.988 22.195 709.438 22.195ZM706.918 35.83C706.078 35.83 705.388 36.16 704.848 36.82C704.338 37.45 704.083 38.14 704.083 38.89C704.083 39.37 704.188 39.76 704.398 40.06C704.638 40.36 704.968 40.51 705.388 40.51C705.778 40.51 706.198 40.36 706.648 40.06C707.128 39.73 707.473 39.25 707.683 38.62L708.628 35.965C708.118 35.875 707.548 35.83 706.918 35.83ZM750.671 39.79C750.611 39.91 750.581 40.09 750.581 40.33C750.581 40.54 750.626 40.705 750.716 40.825C750.836 40.945 750.986 41.005 751.166 41.005C751.526 41.005 751.826 40.855 752.066 40.555C752.336 40.225 752.516 40.06 752.606 40.06C752.756 40.06 752.876 40.165 752.966 40.375C753.056 40.555 753.101 40.78 753.101 41.05C753.131 41.92 752.846 42.775 752.246 43.615C751.646 44.425 750.761 45.1 749.591 45.64C748.451 46.15 747.071 46.405 745.451 46.405C743.471 46.405 741.896 45.955 740.726 45.055C739.556 44.125 738.956 42.895 738.926 41.365C738.926 40.255 739.196 39.01 739.736 37.63L742.211 31.15C742.361 30.76 742.436 30.445 742.436 30.205C742.436 29.815 742.301 29.515 742.031 29.305C741.791 29.065 741.491 28.945 741.131 28.945C740.471 28.945 739.841 29.26 739.241 29.89C738.641 30.49 738.206 31.24 737.936 32.14L735.146 41.32C735.026 41.65 734.966 41.965 734.966 42.265C734.966 42.625 735.041 42.925 735.191 43.165C735.341 43.375 735.551 43.6 735.821 43.84C736.031 44.02 736.181 44.185 736.271 44.335C736.361 44.485 736.376 44.665 736.316 44.875C736.196 45.265 735.911 45.55 735.461 45.73C735.011 45.91 734.306 46 733.346 46H723.086C722.306 46 721.751 45.88 721.421 45.64C721.061 45.37 720.926 45.025 721.016 44.605C721.136 44.245 721.451 43.93 721.961 43.66C722.411 43.42 722.786 43.135 723.086 42.805C723.386 42.475 723.641 41.95 723.851 41.23L727.856 28.225C727.916 28.075 727.946 27.865 727.946 27.595C727.946 27.265 727.871 27.01 727.721 26.83C727.601 26.65 727.391 26.425 727.091 26.155C726.791 25.915 726.581 25.705 726.461 25.525C726.341 25.345 726.326 25.105 726.416 24.805C726.596 24.115 727.541 23.515 729.251 23.005C730.961 22.465 732.746 22.195 734.606 22.195C736.106 22.195 737.291 22.615 738.161 23.455C739.031 24.265 739.421 25.405 739.331 26.875C740.561 25.105 741.866 23.89 743.246 23.23C744.626 22.54 746.126 22.195 747.746 22.195C749.576 22.195 751.046 22.75 752.156 23.86C753.296 24.97 753.866 26.41 753.866 28.18C753.866 29.11 753.716 30.025 753.416 30.925L750.671 39.79ZM783.702 16.705C782.052 16.705 780.972 17.56 780.462 19.27C780.342 19.63 780.282 20.035 780.282 20.485C780.282 21.145 780.417 21.7 780.687 22.15C780.957 22.57 781.347 22.78 781.857 22.78H791.577C795.537 22.78 797.517 24.04 797.517 26.56C797.517 27.19 797.412 27.82 797.202 28.45L793.242 41.32C793.152 41.68 793.107 41.995 793.107 42.265C793.107 42.655 793.182 42.97 793.332 43.21C793.482 43.42 793.692 43.63 793.962 43.84C794.172 44.05 794.322 44.23 794.412 44.38C794.502 44.5 794.517 44.665 794.457 44.875C794.307 45.265 794.007 45.55 793.557 45.73C793.107 45.91 792.417 46 791.487 46H781.227C780.447 46 779.877 45.88 779.517 45.64C779.157 45.37 779.037 45.025 779.157 44.605C779.277 44.245 779.592 43.93 780.102 43.66C780.552 43.42 780.927 43.135 781.227 42.805C781.527 42.475 781.782 41.95 781.992 41.23L786.357 26.74H780.552L776.097 41.32C776.007 41.68 775.962 41.995 775.962 42.265C775.962 42.655 776.037 42.97 776.187 43.21C776.337 43.42 776.547 43.63 776.817 43.84C777.027 44.05 777.177 44.23 777.267 44.38C777.357 44.5 777.372 44.665 777.312 44.875C777.162 45.265 776.862 45.55 776.412 45.73C775.962 45.91 775.272 46 774.342 46H764.082C763.302 46 762.732 45.88 762.372 45.64C762.012 45.37 761.892 45.025 762.012 44.605C762.132 44.245 762.447 43.93 762.957 43.66C763.407 43.42 763.782 43.135 764.082 42.805C764.382 42.475 764.637 41.95 764.847 41.23L768.357 29.71C768.507 29.26 768.582 28.795 768.582 28.315C768.582 27.715 768.447 27.25 768.177 26.92C767.937 26.56 767.562 26.17 767.052 25.75C766.722 25.48 766.467 25.255 766.287 25.075C766.137 24.865 766.062 24.625 766.062 24.355C766.032 23.785 766.227 23.38 766.647 23.14C767.097 22.9 767.937 22.78 769.167 22.78H770.337C770.187 22.21 770.112 21.52 770.112 20.71C770.112 19.81 770.232 18.97 770.472 18.19C771.672 14.56 775.227 12.745 781.137 12.745C782.937 12.745 784.677 13.015 786.357 13.555C788.037 14.065 789.822 14.875 791.712 15.985C792.102 14.785 792.747 13.84 793.647 13.15C794.547 12.46 795.537 12.115 796.617 12.115C797.967 12.115 799.017 12.535 799.767 13.375C800.517 14.185 800.892 15.16 800.892 16.3C800.892 16.75 800.817 17.23 800.667 17.74C800.307 18.88 799.677 19.765 798.777 20.395C797.907 21.025 796.857 21.34 795.627 21.34C794.817 21.34 793.992 21.16 793.152 20.8C792.312 20.41 791.217 19.84 789.867 19.09C788.517 18.31 787.377 17.725 786.447 17.335C785.517 16.915 784.602 16.705 783.702 16.705ZM825.291 39.79C825.231 39.91 825.201 40.09 825.201 40.33C825.201 40.54 825.246 40.705 825.336 40.825C825.456 40.945 825.606 41.005 825.786 41.005C826.146 41.005 826.446 40.855 826.686 40.555C826.956 40.225 827.136 40.06 827.226 40.06C827.376 40.06 827.496 40.165 827.586 40.375C827.676 40.555 827.721 40.78 827.721 41.05C827.751 41.92 827.466 42.775 826.866 43.615C826.266 44.425 825.381 45.1 824.211 45.64C823.071 46.15 821.691 46.405 820.071 46.405C818.091 46.405 816.516 45.955 815.346 45.055C814.176 44.125 813.576 42.895 813.546 41.365C813.546 40.255 813.816 39.01 814.356 37.63L816.831 31.15C816.981 30.76 817.056 30.445 817.056 30.205C817.056 29.815 816.921 29.515 816.651 29.305C816.411 29.065 816.111 28.945 815.751 28.945C815.091 28.945 814.461 29.26 813.861 29.89C813.261 30.49 812.826 31.24 812.556 32.14L809.766 41.32C809.646 41.65 809.586 41.965 809.586 42.265C809.586 42.625 809.661 42.925 809.811 43.165C809.961 43.375 810.171 43.6 810.441 43.84C810.651 44.02 810.801 44.185 810.891 44.335C810.981 44.485 810.996 44.665 810.936 44.875C810.816 45.265 810.531 45.55 810.081 45.73C809.631 45.91 808.926 46 807.966 46H797.706C796.926 46 796.371 45.88 796.041 45.64C795.681 45.37 795.546 45.025 795.636 44.605C795.756 44.245 796.071 43.93 796.581 43.66C797.031 43.42 797.406 43.135 797.706 42.805C798.006 42.475 798.261 41.95 798.471 41.23L802.476 28.225C802.536 28.075 802.566 27.865 802.566 27.595C802.566 27.265 802.491 27.01 802.341 26.83C802.221 26.65 802.011 26.425 801.711 26.155C801.411 25.915 801.201 25.705 801.081 25.525C800.961 25.345 800.946 25.105 801.036 24.805C801.216 24.115 802.161 23.515 803.871 23.005C805.581 22.465 807.366 22.195 809.226 22.195C810.726 22.195 811.911 22.615 812.781 23.455C813.651 24.265 814.041 25.405 813.951 26.875C815.181 25.105 816.486 23.89 817.866 23.23C819.246 22.54 820.746 22.195 822.366 22.195C824.196 22.195 825.666 22.75 826.776 23.86C827.916 24.97 828.486 26.41 828.486 28.18C828.486 29.11 828.336 30.025 828.036 30.925L825.291 39.79ZM854.802 39.52C854.742 39.76 854.712 39.925 854.712 40.015C854.712 40.225 854.772 40.39 854.892 40.51C855.012 40.63 855.162 40.69 855.342 40.69C855.702 40.69 856.002 40.54 856.242 40.24C856.512 39.91 856.692 39.745 856.782 39.745C856.932 39.745 857.052 39.85 857.142 40.06C857.232 40.27 857.277 40.51 857.277 40.78C857.307 41.59 856.992 42.415 856.332 43.255C855.702 44.095 854.847 44.785 853.767 45.325C852.687 45.865 851.517 46.135 850.257 46.135C848.757 46.135 847.452 45.85 846.342 45.28C845.232 44.71 844.467 43.96 844.047 43.03C843.237 44.08 842.307 44.86 841.257 45.37C840.207 45.88 839.097 46.135 837.927 46.135C836.547 46.135 835.257 45.79 834.057 45.1C832.887 44.41 831.942 43.435 831.222 42.175C830.532 40.885 830.187 39.43 830.187 37.81C830.187 35.08 830.697 32.515 831.717 30.115C832.767 27.685 834.222 25.735 836.082 24.265C837.942 22.765 840.057 22.015 842.427 22.015C843.717 22.015 844.812 22.165 845.712 22.465C846.642 22.765 847.482 23.215 848.232 23.815L849.762 18.775C849.852 18.505 849.897 18.28 849.897 18.1C849.897 17.77 849.807 17.5 849.627 17.29C849.477 17.08 849.267 16.87 848.997 16.66C848.697 16.42 848.472 16.21 848.322 16.03C848.202 15.85 848.187 15.61 848.277 15.31C848.457 14.62 849.402 14.02 851.112 13.51C852.822 13 854.607 12.745 856.467 12.745C858.207 12.745 859.482 13.075 860.292 13.735C861.132 14.395 861.552 15.295 861.552 16.435C861.552 17.095 861.447 17.74 861.237 18.37L854.802 39.52ZM847.287 26.875C846.807 26.455 846.282 26.245 845.712 26.245C844.842 26.245 843.987 26.89 843.147 28.18C842.307 29.47 841.632 31.03 841.122 32.86C840.612 34.69 840.372 36.34 840.402 37.81C840.402 39.46 840.942 40.285 842.022 40.285C842.412 40.285 842.742 40.135 843.012 39.835C843.282 39.505 843.537 38.98 843.777 38.26L847.287 26.875ZM910.939 39.79C910.879 39.91 910.849 40.09 910.849 40.33C910.849 40.54 910.894 40.705 910.984 40.825C911.104 40.945 911.254 41.005 911.434 41.005C911.794 41.005 912.094 40.855 912.334 40.555C912.604 40.225 912.784 40.06 912.874 40.06C913.024 40.06 913.144 40.165 913.234 40.375C913.324 40.555 913.369 40.78 913.369 41.05C913.399 41.92 913.114 42.775 912.514 43.615C911.914 44.425 911.029 45.1 909.859 45.64C908.719 46.15 907.339 46.405 905.719 46.405C903.739 46.405 902.164 45.955 900.994 45.055C899.824 44.125 899.224 42.895 899.194 41.365C899.194 40.255 899.464 39.01 900.004 37.63L902.479 31.15C902.629 30.76 902.704 30.445 902.704 30.205C902.704 29.815 902.569 29.515 902.299 29.305C902.059 29.065 901.759 28.945 901.399 28.945C900.889 28.945 900.364 29.17 899.824 29.62C899.284 30.07 898.804 30.775 898.384 31.735L895.909 39.79C895.849 39.91 895.819 40.09 895.819 40.33C895.819 40.54 895.864 40.705 895.954 40.825C896.074 40.945 896.224 41.005 896.404 41.005C896.764 41.005 897.064 40.855 897.304 40.555C897.574 40.225 897.754 40.06 897.844 40.06C897.994 40.06 898.114 40.165 898.204 40.375C898.294 40.555 898.339 40.78 898.339 41.05C898.369 41.92 898.084 42.775 897.484 43.615C896.884 44.425 895.999 45.1 894.829 45.64C893.689 46.15 892.309 46.405 890.689 46.405C888.709 46.405 887.134 45.955 885.964 45.055C884.794 44.125 884.194 42.895 884.164 41.365C884.164 40.255 884.434 39.01 884.974 37.63L887.449 31.15C887.599 30.76 887.674 30.445 887.674 30.205C887.674 29.815 887.539 29.515 887.269 29.305C887.029 29.065 886.729 28.945 886.369 28.945C885.859 28.945 885.334 29.17 884.794 29.62C884.254 30.04 883.804 30.73 883.444 31.69L880.474 41.32C880.354 41.65 880.294 41.965 880.294 42.265C880.294 42.625 880.369 42.925 880.519 43.165C880.669 43.375 880.879 43.6 881.149 43.84C881.359 44.02 881.509 44.185 881.599 44.335C881.689 44.485 881.704 44.665 881.644 44.875C881.524 45.265 881.239 45.55 880.789 45.73C880.339 45.91 879.634 46 878.674 46H868.414C867.634 46 867.079 45.88 866.749 45.64C866.389 45.37 866.254 45.025 866.344 44.605C866.464 44.245 866.779 43.93 867.289 43.66C867.739 43.42 868.114 43.135 868.414 42.805C868.714 42.475 868.969 41.95 869.179 41.23L873.184 28.225C873.244 28.075 873.274 27.865 873.274 27.595C873.274 27.265 873.199 27.01 873.049 26.83C872.929 26.65 872.719 26.425 872.419 26.155C872.119 25.915 871.909 25.705 871.789 25.525C871.669 25.345 871.654 25.105 871.744 24.805C871.924 24.115 872.869 23.515 874.579 23.005C876.289 22.465 878.074 22.195 879.934 22.195C881.404 22.195 882.559 22.6 883.399 23.41C884.269 24.22 884.689 25.33 884.659 26.74C885.889 25.03 887.179 23.845 888.529 23.185C889.909 22.525 891.394 22.195 892.984 22.195C894.724 22.195 896.134 22.705 897.214 23.725C898.324 24.715 898.939 26.02 899.059 27.64C900.349 25.6 901.729 24.19 903.199 23.41C904.669 22.6 906.274 22.195 908.014 22.195C909.844 22.195 911.314 22.75 912.424 23.86C913.564 24.97 914.134 26.41 914.134 28.18C914.134 29.11 913.984 30.025 913.684 30.925L910.939 39.79ZM930.552 21.97C934.362 21.97 937.122 22.585 938.832 23.815C940.542 25.015 941.397 26.56 941.397 28.45C941.397 29.02 941.337 29.545 941.217 30.025C940.767 32.005 939.507 33.43 937.437 34.3C935.397 35.14 932.982 35.56 930.192 35.56C928.782 35.56 927.462 35.47 926.232 35.29C926.202 36.85 926.622 37.945 927.492 38.575C928.362 39.205 929.577 39.52 931.137 39.52C931.857 39.52 932.547 39.445 933.207 39.295C933.867 39.115 934.707 38.86 935.727 38.53C936.567 38.23 937.137 38.08 937.437 38.08C937.767 38.08 937.932 38.275 937.932 38.665C937.962 39.715 937.572 40.825 936.762 41.995C935.952 43.135 934.752 44.11 933.162 44.92C931.572 45.73 929.652 46.135 927.402 46.135C924.072 46.135 921.342 45.295 919.212 43.615C917.082 41.935 916.017 39.49 916.017 36.28C916.017 35.38 916.137 34.33 916.377 33.13C917.127 29.44 918.762 26.665 921.282 24.805C923.832 22.915 926.922 21.97 930.552 21.97ZM926.547 32.59C926.667 32.62 926.832 32.635 927.042 32.635C928.302 32.635 929.262 32.05 929.922 30.88C930.582 29.71 930.897 28.405 930.867 26.965C930.837 26.125 930.597 25.705 930.147 25.705C929.817 25.705 929.427 25.975 928.977 26.515C928.527 27.025 928.077 27.805 927.627 28.855C927.207 29.905 926.847 31.15 926.547 32.59ZM945.833 36.91C947.033 36.91 948.038 37.315 948.848 38.125C949.688 38.935 950.108 39.925 950.108 41.095C950.108 41.905 949.883 42.7 949.433 43.48C949.013 44.26 948.413 44.905 947.633 45.415C946.883 45.895 946.028 46.135 945.068 46.135C943.898 46.135 942.908 45.73 942.098 44.92C941.288 44.11 940.868 43.12 940.838 41.95C940.838 41.14 941.048 40.345 941.468 39.565C941.888 38.785 942.473 38.155 943.223 37.675C944.003 37.165 944.873 36.91 945.833 36.91ZM959.192 36.91C960.392 36.91 961.397 37.315 962.207 38.125C963.047 38.935 963.467 39.925 963.467 41.095C963.467 41.905 963.242 42.7 962.792 43.48C962.372 44.26 961.772 44.905 960.992 45.415C960.242 45.895 959.387 46.135 958.427 46.135C957.257 46.135 956.267 45.73 955.457 44.92C954.647 44.11 954.227 43.12 954.197 41.95C954.197 41.14 954.407 40.345 954.827 39.565C955.247 38.785 955.832 38.155 956.582 37.675C957.362 37.165 958.232 36.91 959.192 36.91ZM972.551 36.91C973.751 36.91 974.756 37.315 975.566 38.125C976.406 38.935 976.826 39.925 976.826 41.095C976.826 41.905 976.601 42.7 976.151 43.48C975.731 44.26 975.131 44.905 974.351 45.415C973.601 45.895 972.746 46.135 971.786 46.135C970.616 46.135 969.626 45.73 968.816 44.92C968.006 44.11 967.586 43.12 967.556 41.95C967.556 41.14 967.766 40.345 968.186 39.565C968.606 38.785 969.191 38.155 969.941 37.675C970.721 37.165 971.591 36.91 972.551 36.91ZM985.911 36.91C987.111 36.91 988.116 37.315 988.926 38.125C989.766 38.935 990.186 39.925 990.186 41.095C990.186 41.905 989.961 42.7 989.511 43.48C989.091 44.26 988.491 44.905 987.711 45.415C986.961 45.895 986.106 46.135 985.146 46.135C983.976 46.135 982.986 45.73 982.176 44.92C981.366 44.11 980.946 43.12 980.916 41.95C980.916 41.14 981.126 40.345 981.546 39.565C981.966 38.785 982.551 38.155 983.301 37.675C984.081 37.165 984.951 36.91 985.911 36.91Z" fill="#383838"/>
</svg>
