<svg width="726" height="43" viewBox="0 0 726 43" fill="none" xmlns="http://www.w3.org/2000/svg">
<path d="M64.2129 16.6788L70.9069 21.3798L64.2129 26.4424L58.9534 33.3131L55.1283 26.4424L47 21.3798L55.1283 16.6788L58.9534 8L64.2129 16.6788Z" fill="#EFA2AA"/>
<path d="M137.68 17.8571L143 21.5714L137.68 25.5714L133.5 31L130.46 25.5714L124 21.5714L130.46 17.8571L133.5 11L137.68 17.8571Z" fill="#FDE5BD"/>
<path d="M104.76 14.0286L114 21.0857L104.76 28.6857L97.5 39L92.22 28.6857L81 21.0857L92.22 14.0286L97.5 1L104.76 14.0286Z" fill="#92C4EA"/>
<path d="M26.3257 13.9825L36.5634 21.5563L26.3257 29.7128L18.2817 40.7823L12.4316 29.7128L0 21.5563L12.4316 13.9825L18.2817 0L26.3257 13.9825Z" fill="#FF5372"/>
<path d="M217.213 16.6788L223.907 21.3798L217.213 26.4424L211.953 33.3131L208.128 26.4424L200 21.3798L208.128 16.6788L211.953 8L217.213 16.6788Z" fill="#EFA2AA"/>
<path d="M290.68 17.8571L296 21.5714L290.68 25.5714L286.5 31L283.46 25.5714L277 21.5714L283.46 17.8571L286.5 11L290.68 17.8571Z" fill="#FDE5BD"/>
<path d="M257.76 14.0286L267 21.0857L257.76 28.6857L250.5 39L245.22 28.6857L234 21.0857L245.22 14.0286L250.5 1L257.76 14.0286Z" fill="#92C4EA"/>
<path d="M179.326 13.9825L189.563 21.5563L179.326 29.7128L171.282 40.7823L165.432 29.7128L153 21.5563L165.432 13.9825L171.282 0L179.326 13.9825Z" fill="#FF5372"/>
<path d="M370.213 16.6788L376.907 21.3798L370.213 26.4424L364.953 33.3131L361.128 26.4424L353 21.3798L361.128 16.6788L364.953 8L370.213 16.6788Z" fill="#EFA2AA"/>
<path d="M443.68 17.8571L449 21.5714L443.68 25.5714L439.5 31L436.46 25.5714L430 21.5714L436.46 17.8571L439.5 11L443.68 17.8571Z" fill="#FDE5BD"/>
<path d="M410.76 14.0286L420 21.0857L410.76 28.6857L403.5 39L398.22 28.6857L387 21.0857L398.22 14.0286L403.5 1L410.76 14.0286Z" fill="#92C4EA"/>
<path d="M332.326 13.9825L342.563 21.5563L332.326 29.7128L324.282 40.7823L318.432 29.7128L306 21.5563L318.432 13.9825L324.282 0L332.326 13.9825Z" fill="#FF5372"/>
<path d="M523.213 16.6788L529.907 21.3798L523.213 26.4424L517.953 33.3131L514.128 26.4424L506 21.3798L514.128 16.6788L517.953 8L523.213 16.6788Z" fill="#EFA2AA"/>
<path d="M596.68 17.8571L602 21.5714L596.68 25.5714L592.5 31L589.46 25.5714L583 21.5714L589.46 17.8571L592.5 11L596.68 17.8571Z" fill="#FDE5BD"/>
<path d="M563.76 14.0286L573 21.0857L563.76 28.6857L556.5 39L551.22 28.6857L540 21.0857L551.22 14.0286L556.5 1L563.76 14.0286Z" fill="#92C4EA"/>
<path d="M485.326 13.9825L495.563 21.5563L485.326 29.7128L477.282 40.7823L471.432 29.7128L459 21.5563L471.432 13.9825L477.282 0L485.326 13.9825Z" fill="#FF5372"/>
<path d="M676.213 18.6788L682.907 23.3798L676.213 28.4424L670.953 35.3131L667.128 28.4424L659 23.3798L667.128 18.6788L670.953 10L676.213 18.6788Z" fill="#EFA2AA"/>
<path d="M716.76 16.0286L726 23.0857L716.76 30.6857L709.5 41L704.22 30.6857L693 23.0857L704.22 16.0286L709.5 3L716.76 16.0286Z" fill="#92C4EA"/>
<path d="M638.326 15.9825L648.563 23.5563L638.326 31.7128L630.282 42.7823L624.432 31.7128L612 23.5563L624.432 15.9825L630.282 2L638.326 15.9825Z" fill="#FF5372"/>
</svg>
