<svg width="362" height="329" viewBox="0 0 362 329" fill="none" xmlns="http://www.w3.org/2000/svg">
<path d="M132.115 75.8911L135.69 86.4159L136.921 93.3602L136.877 101.742L136.631 108.144L136.224 111.93L135.91 115.636L135.318 120.525L133.955 124.604L128.474 128.901L93.3944 142.801L132.115 75.8911Z" fill="#EFA2AA"/>
<path d="M162.242 181.712L162.242 117.275L196.973 135.274L233.473 174.274L284.973 248.775L260.973 275.775L223.757 293.446L185.05 300.855L172.473 244.275L162.242 181.712Z" fill="#EFA2AA"/>
<path d="M167.473 162.341C167.473 193.545 143.973 224.84 107.973 208.34C76.7685 208.34 -7.02734 244.275 0.472576 201.34C14.4726 170.275 109.769 114.454 140.973 114.454C172.177 114.454 167.473 131.136 167.473 162.341Z" fill="#EFA2AA"/>
<path d="M175.115 81.681L175.446 92.7915L174.586 99.7915L172.086 107.792L169.973 113.84L168.473 117.34L167.086 120.792L165.086 125.292L162.586 128.792L156.086 131.292L118.473 134.291L175.115 81.681Z" fill="#EFA2AA"/>
<path d="M125.252 114.426C118.915 123.406 137.992 124.425 141.751 127.113C156.414 137.594 172.473 189.775 180.472 187.775C168.691 177.512 174.576 128.774 158.721 114.175C146.83 103.226 131.59 105.446 125.252 114.426Z" fill="#FF5372"/>
<path d="M149.65 130.371C145.929 134.448 157.431 138.033 159.725 140.145C168.671 148.383 179.613 183.59 183.334 179.512C176.126 171.853 179.516 146.26 169.808 135.507C162.527 127.441 153.37 126.293 149.65 130.371Z" fill="#FF5372"/>
<path d="M207.194 180.729C202.627 183.361 214.07 193.452 216.121 197.037C224.119 211.021 229.752 256.419 234.318 253.787C228.043 241.369 235.816 214.341 227.436 197.124C221.15 184.211 211.76 178.098 207.194 180.729Z" fill="#FF5372"/>
<path d="M223.051 195.651C215.605 199.801 230.851 210.961 233.221 215.257C242.461 232.011 238.973 287.275 250.32 287.275C243.365 272.26 259.477 234.381 250.32 213.511C243.451 197.859 230.496 191.502 223.051 195.651Z" fill="#FF5372"/>
<path d="M230.385 212.711C222.939 216.861 238.713 228.967 241.233 233.533C251.061 251.341 250.473 298.275 259.473 308.275C252.012 292.352 268.394 254.281 258.54 232.162C251.15 215.572 237.831 208.562 230.385 212.711Z" fill="#FF5372"/>
<path d="M175.282 150.231C172.333 151.875 178.926 157.29 180.023 159.275C184.301 167.02 185.614 192.787 188.564 191.143C185.277 184.24 191.375 168.558 187.016 158.977C183.746 151.792 178.231 148.587 175.282 150.231Z" fill="#FF5372"/>
<path d="M81.3488 129.74C78.5658 125.787 74.6481 134.015 72.7862 135.31C65.5243 140.365 37.2052 140.35 39.9882 144.302C46.6299 140.482 66.0858 149.478 75.3694 144.441C82.3321 140.663 84.1318 133.693 81.3488 129.74Z" fill="#FF5372"/>
<path d="M94.3488 124.74C91.5658 120.787 87.6481 129.015 85.7862 130.31C78.5243 135.365 50.2052 135.35 52.9882 139.302C59.6299 135.482 79.0858 144.478 88.3694 139.441C95.3321 135.663 97.1318 128.693 94.3488 124.74Z" fill="#FF5372"/>
<path d="M123.711 112.166C123.317 115.01 116.307 111.359 114.199 111.075C105.978 109.966 83.1521 116.592 83.5455 113.748C90.6888 114.316 102.164 104.777 112.008 105.403C119.39 105.874 124.104 109.322 123.711 112.166Z" fill="#FF5372"/>
<path d="M113.711 118.812C113.317 121.656 106.307 118.005 104.199 117.721C95.9781 116.613 73.1521 123.238 73.5455 120.394C80.6888 120.962 92.1643 111.423 102.008 112.05C109.39 112.52 114.104 115.968 113.711 118.812Z" fill="#FF5372"/>
<path d="M187.129 159.612C182.783 163.016 193.532 168.458 195.444 170.921C202.9 180.529 207.851 217.063 212.197 213.659C206.359 204.91 213.947 180.235 206.157 168.02C200.314 158.859 191.474 156.208 187.129 159.612Z" fill="#FF5372"/>
<path d="M151.612 130.548C142.873 142.932 166.136 142.189 170.45 145.281C187.278 157.34 194.973 220.275 211.472 220.275C198.152 208.187 205.813 147.841 187.973 130.548C174.592 117.578 160.352 118.164 151.612 130.548Z" fill="#FF5372"/>
<path d="M180.8 148.409C170.546 162.94 193.732 159.167 197.62 161.967C212.785 172.885 209.973 241.775 226.473 236.275C214.792 224.878 225.976 164.868 210.473 148.409C198.845 136.065 191.055 133.879 180.8 148.409Z" fill="#FF5372"/>
<path d="M210.094 178.034C195.762 191.549 221.874 192.679 225.51 196.608C239.692 211.932 229.973 271.775 242.473 280.275C237.973 259.775 256.479 205.712 243.127 184.275C233.113 168.196 224.426 164.519 210.094 178.034Z" fill="#FF5372"/>
<path d="M180.473 128.275C176.973 138.275 175.324 138.275 168.973 138.275C162.622 138.275 157.473 133.797 157.473 128.275C157.473 122.752 148.121 113.275 154.473 113.275C160.824 113.275 180.473 119.775 180.473 128.275Z" fill="#FF5372"/>
<path d="M173.473 146.068L157.973 113.775L173.473 111.275L185.473 113.775L197.973 118.775L208.473 126.275L218.473 138.275L224.973 148.775L232.473 161.275L237.973 171.275L245.973 187.775L236.756 202.815L173.473 146.068Z" fill="#FF5372"/>
<path d="M207.116 184.74L191.616 152.447L207.116 149.947L219.116 152.447L232.973 157.275L240.473 160.775L245.473 165.775L250.973 172.275L256.473 180.275L261.973 189.775L265.973 198.275L271.616 209.947L279.616 226.447L270.399 241.487L207.116 184.74Z" fill="#FF5372"/>
<path d="M133.854 137.583C130.406 150.953 117.473 134.428 112.858 133.275C94.8576 128.775 36.2201 161.779 39.6675 148.409C55.6601 150.468 90.6805 104.764 112.858 106.868C129.49 108.446 137.301 124.213 133.854 137.583Z" fill="#FF5372"/>
<path d="M172.5 87.5L172 93L171.5 99L166.5 112.5L158.5 114L153 110L172.5 87.5Z" fill="#FFECEC"/>
<path d="M208.823 117.384L216.074 122.993L208.762 128.955L203 137.068L198.883 128.903L190.074 122.857L198.943 117.332L203.157 107.068L208.823 117.384Z" fill="#92C4EA"/>
<path d="M191.525 112.201L195.351 110.763L195.285 114.947L196.348 119.047L192.55 118.692L188.153 120.62L188.79 115.946L186.599 111.928L191.525 112.201Z" fill="#FDE5BD"/>
<path d="M82.3124 122.731L82.4501 121.42L83.3707 122.387L84.4075 123.045L83.8753 123.941L83.7781 125.51L82.817 124.285L81.6639 123.936L82.3124 122.731Z" fill="#FFECEC"/>
<path d="M209.509 183.365L211.985 182.458L211.965 185.159L212.678 187.813L210.21 187.563L207.366 188.783L207.754 185.769L206.309 183.163L209.509 183.365Z" fill="#FFECEC"/>
<path d="M217.613 185.349L224.066 190.4L217.558 195.769L212.429 203.075L208.765 195.723L200.925 190.279L208.819 185.303L212.571 176.061L217.613 185.349Z" fill="#92C4EA"/>
<path d="M248.451 269.001L254.064 273.864L248.399 279.041L243.932 286.083L240.747 279.001L233.928 273.759L240.799 268.961L244.068 260.053L248.451 269.001Z" fill="#92C4EA"/>
<path d="M73.9763 28.8515L136.072 111.772C136.273 112.041 136.242 112.499 136.005 112.752L119.153 130.804C118.917 131.058 118.58 130.993 118.434 130.667L73.1898 29.6939C72.8989 29.0449 73.5771 28.3184 73.9763 28.8515Z" fill="#FF5372" stroke="#FF5372" stroke-width="0.839745"/>
<path d="M81.3398 47.8725L82.5321 40.2044" stroke="#FFECEC" stroke-width="0.839745" stroke-linecap="round"/>
<path d="M75.1738 34.1432L75.6779 31.0564" stroke="#FFECEC" stroke-width="0.839745" stroke-linecap="round"/>
<path d="M87.8662 62.4241L89.7827 49.9353" stroke="#FFECEC" stroke-width="0.839745" stroke-linecap="round"/>
<path d="M94.5161 77.2356L97.1827 59.7534" stroke="#FFECEC" stroke-width="0.839745" stroke-linecap="round"/>
<path d="M101.805 93.6058L105.299 70.6194" stroke="#FFECEC" stroke-width="0.839745" stroke-linecap="round"/>
<path d="M109.027 109.713L113.325 81.373" stroke="#FFECEC" stroke-width="0.839745" stroke-linecap="round"/>
<path d="M127.113 122.108L129.944 103.533" stroke="#FFECEC" stroke-width="0.839745" stroke-linecap="round"/>
<path d="M74.1064 28.6781L136.202 111.599C136.476 111.965 136.433 112.588 136.111 112.934L119.259 130.985C118.937 131.331 118.479 131.243 118.279 130.798L73.0353 29.8255C72.6392 28.9415 73.5627 27.9522 74.1064 28.6781Z" stroke="#FFECEC" stroke-width="0.419873"/>
<path d="M116.736 126.941L121.898 92.8458" stroke="#FFECEC" stroke-width="0.839745" stroke-linecap="round"/>
<path d="M134 109.5C134 113.918 124.851 131 118.5 131C112.149 131 107 127.418 107 123C107 118.582 100.648 106 107 106C118.5 93.5 139.5 109.5 134 109.5Z" fill="#FF5372"/>
<path d="M132 81.5L133.5 87L134.5 93L134.5 100.5L134 107.5L132 106L124 95.5L132 81.5Z" fill="#FFECEC"/>
<rect x="129" y="109" width="9" height="14" fill="#FF5372"/>
<rect x="117" y="130" width="4" height="2" fill="#FF5372"/>
<path d="M103.914 104.807L110.661 106.528L108.024 113.219L107.17 120.969L101.553 116.381L93.6324 114.848L97.4432 107.969L96.5143 99.1601L103.914 104.807Z" fill="#92C4EA"/>
<path d="M88.5247 111.201L92.3505 109.763L92.2852 113.947L93.3482 118.047L89.5503 117.692L85.1534 119.62L85.7898 114.946L83.5986 110.928L88.5247 111.201Z" fill="#FDE5BD"/>
<path d="M92.3124 113.731L92.4501 112.42L93.3707 113.387L94.4075 114.045L93.8753 114.941L93.7781 116.51L92.817 115.285L91.6639 114.936L92.3124 113.731Z" fill="#FFECEC"/>
<path d="M108.312 113.731L108.45 112.42L109.371 113.387L110.408 114.045L109.875 114.941L109.778 116.51L108.817 115.285L107.664 114.936L108.312 113.731Z" fill="#FFECEC"/>
<path d="M113.312 107.731L113.45 106.42L114.371 107.387L115.408 108.045L114.875 108.941L114.778 110.51L113.817 109.285L112.664 108.936L113.312 107.731Z" fill="#FFECEC"/>
<path d="M235.674 207.463C228.228 211.613 244.002 223.719 246.522 228.285C256.35 246.093 255.762 293.027 264.762 303.027C257.301 287.104 273.683 249.033 263.829 226.914C256.439 210.324 243.12 203.314 235.674 207.463Z" fill="#FF5372"/>
<path d="M238.674 187.463C231.228 191.613 247.002 203.719 249.522 208.285C259.35 226.093 258.762 273.027 267.762 283.027C260.301 267.104 276.683 229.033 266.829 206.914C259.439 190.324 246.12 183.314 238.674 187.463Z" fill="#FF5372"/>
<path d="M253.677 208.905C245.831 213.277 262.579 226.263 265.271 231.139C275.77 250.16 275.436 300.126 285.011 310.828C277.027 293.829 294.111 253.396 283.559 229.786C275.645 212.078 261.522 204.532 253.677 208.905Z" fill="#FF5372"/>
<path d="M243.771 212.502C236.287 216.673 252.701 229.845 255.394 234.721C265.896 253.74 266.552 303.154 276 313.927C267.964 296.958 283.657 257.3 273.013 233.74C265.03 216.07 251.256 208.331 243.771 212.502Z" fill="#FF5372"/>
<path d="M276.823 209.384L284.074 214.993L276.762 220.955L271 229.068L266.883 220.903L258.074 214.857L266.943 209.332L271.157 199.068L276.823 209.384Z" fill="#92C4EA"/>
<path d="M263.525 205.201L267.351 203.763L267.285 207.947L268.348 212.047L264.55 211.692L260.153 213.62L260.79 208.946L258.599 204.928L263.525 205.201Z" fill="#FDE5BD"/>
<path d="M250.525 264.201L254.351 262.763L254.285 266.947L255.348 271.047L251.55 270.692L247.153 272.62L247.79 267.946L245.599 263.928L250.525 264.201Z" fill="#FDE5BD"/>
<path d="M204.525 181.201L208.351 179.763L208.285 183.947L209.348 188.047L205.55 187.692L201.153 189.62L201.79 184.946L199.599 180.928L204.525 181.201Z" fill="#FDE5BD"/>
<path d="M245.592 263.206L246.585 262.34L246.601 263.675L246.912 264.863L245.912 265.157L244.773 266.24L244.903 264.688L244.296 263.648L245.592 263.206Z" fill="#FFECEC"/>
<path d="M250.389 270.864L250.396 269.547L251.408 270.417L252.505 270.969L252.065 271.914L252.124 273.484L251.046 272.361L249.864 272.128L250.389 270.864Z" fill="#FFECEC"/>
<path d="M238.151 260.254L238.749 259.08L239.262 260.313L239.994 261.299L239.176 261.945L238.523 263.375L238.065 261.886L237.113 261.147L238.151 260.254Z" fill="#FFECEC"/>
<path d="M255.151 275.254L255.749 274.08L256.262 275.313L256.994 276.299L256.176 276.945L255.523 278.375L255.065 276.886L254.113 276.147L255.151 275.254Z" fill="#FFECEC"/>
<path d="M267.553 207.174L268.557 206.32L268.557 207.655L268.854 208.846L267.851 209.129L266.699 210.198L266.847 208.648L266.253 207.6L267.553 207.174Z" fill="#FFECEC"/>
<path d="M265.452 221.177L264.476 220.292L265.8 220.12L266.943 219.671L267.352 220.63L268.561 221.634L267.005 221.687L266.043 222.412L265.452 221.177Z" fill="#FFECEC"/>
<path d="M277.423 223.924L277.364 222.607L278.418 223.427L279.541 223.924L279.148 224.889L279.285 226.455L278.153 225.386L276.96 225.212L277.423 223.924Z" fill="#FFECEC"/>
<path d="M255.329 209.024L255.11 207.725L256.256 208.409L257.432 208.765L257.159 209.771L257.487 211.309L256.232 210.386L255.028 210.359L255.329 209.024Z" fill="#FFECEC"/>
<path d="M208.271 183.542L208.593 182.249L209.433 183.308L210.438 184.07L209.756 184.91L209.442 186.464L208.593 185.144L207.424 184.677L208.271 183.542Z" fill="#FFECEC"/>
<path d="M207.205 195.551L207.495 194.265L208.296 195.334L209.249 196.109L208.615 196.936L208.335 198.483L207.524 197.154L206.42 196.672L207.205 195.551Z" fill="#FFECEC"/>
<path d="M218.997 200.217L219.525 199.009L220.11 200.209L220.899 201.15L220.121 201.844L219.554 203.31L219.008 201.851L218.015 201.17L218.997 200.217Z" fill="#FFECEC"/>
<path d="M201.536 176.152L201.152 174.891L202.377 175.423L203.588 175.624L203.447 176.657L203.97 178.139L202.607 177.386L201.409 177.514L201.536 176.152Z" fill="#FFECEC"/>
<path d="M195.662 117.396L196.456 116.344L196.746 117.647L197.295 118.746L196.377 119.239L195.485 120.533L195.293 118.988L194.485 118.095L195.662 117.396Z" fill="#FFECEC"/>
<path d="M197.667 128.829L197.805 127.519L198.725 128.486L199.762 129.144L199.23 130.04L199.133 131.609L198.172 130.383L197.018 130.034L197.667 128.829Z" fill="#FFECEC"/>
<path d="M209.312 132.731L209.45 131.42L210.371 132.387L211.408 133.045L210.875 133.941L210.778 135.51L209.817 134.285L208.664 133.936L209.312 132.731Z" fill="#FFECEC"/>
<path d="M183.312 114.731L183.45 113.42L184.371 114.387L185.408 115.045L184.875 115.941L184.778 117.51L183.817 116.285L182.664 115.936L183.312 114.731Z" fill="#FFECEC"/>
</svg>
