<svg width="250" height="250" viewBox="0 0 250 250" fill="none" xmlns="http://www.w3.org/2000/svg">
<path d="M212.107 126.283L211.865 129.968L221.382 130.593C222.488 130.665 223.501 130.907 224.421 131.318C225.341 131.73 226.058 132.396 226.57 133.318C226.936 133.974 227.129 134.682 227.149 135.443C227.17 136.205 227.078 136.883 226.876 137.477L230.298 137.702C230.517 136.863 230.57 135.96 230.458 134.994C230.346 134.04 230.051 133.19 229.574 132.446C229.154 131.717 228.546 131.092 227.75 130.572L230.753 130.77L230.967 127.522L212.107 126.283Z" fill="#FF5372"/>
<path d="M208.87 146.169C208.431 147.948 208.48 149.672 209.017 151.343C209.566 153.016 210.573 154.412 212.04 155.531L214.003 152.32C212.284 150.911 211.703 149.079 212.259 146.825C212.639 145.284 213.402 144.187 214.549 143.533C215.696 142.878 217.137 142.687 218.872 142.959L215.498 156.636C217.665 157.303 219.627 157.511 221.383 157.259C223.139 157.007 224.61 156.331 225.795 155.229C226.991 154.13 227.82 152.646 228.281 150.777C228.722 148.988 228.707 147.32 228.236 145.773C227.764 144.227 226.885 142.893 225.6 141.771C224.312 140.66 222.665 139.857 220.661 139.362C218.769 138.896 217.01 138.865 215.384 139.269C213.767 139.687 212.387 140.482 211.245 141.654C210.111 142.841 209.32 144.346 208.87 146.169ZM225.104 150.138C224.42 152.913 222.44 154.095 219.165 153.684L221.621 143.727C223.117 144.336 224.165 145.178 224.765 146.251C225.366 147.324 225.479 148.62 225.104 150.138Z" fill="#FF5372"/>
<path d="M203.036 162.357C202.006 164.516 201.68 166.434 202.056 168.113C202.427 169.802 203.455 171.048 205.14 171.851C206.024 172.273 206.86 172.445 207.646 172.368C208.428 172.301 209.241 171.952 210.085 171.32C210.939 170.693 211.892 169.752 212.943 168.495C213.918 167.318 214.689 166.445 215.258 165.876C215.832 165.323 216.303 164.985 216.671 164.864C217.05 164.747 217.429 164.779 217.808 164.96C218.461 165.271 218.824 165.825 218.896 166.622C218.979 167.424 218.761 168.315 218.242 169.296C217.703 170.318 217.035 171.04 216.24 171.462C215.455 171.89 214.629 171.968 213.763 171.697L212.767 175.371C214.374 175.905 215.939 175.739 217.462 174.876C218.996 174.017 220.23 172.609 221.164 170.65C222.118 168.649 222.415 166.819 222.055 165.161C221.705 163.509 220.756 162.313 219.208 161.575C218.376 161.179 217.58 161.019 216.82 161.096C216.065 161.188 215.268 161.558 214.43 162.205C213.586 162.863 212.621 163.831 211.533 165.109C210.538 166.276 209.763 167.128 209.21 167.665C208.656 168.203 208.195 168.506 207.826 168.576C207.462 168.661 207.064 168.601 206.632 168.395C205.895 168.043 205.457 167.472 205.316 166.682C205.171 165.902 205.345 164.996 205.837 163.964C206.379 162.826 207.086 161.994 207.958 161.466C208.825 160.949 209.756 160.798 210.752 161.014L211.842 157.385C210.038 156.887 208.366 157.072 206.827 157.941C205.288 158.81 204.025 160.282 203.036 162.357Z" fill="#FF5372"/>
<path d="M194.788 176.12C193.965 177.209 193.432 178.32 193.19 179.453C192.941 180.595 192.953 181.701 193.227 182.771L191.426 181.41L189.464 184.007L204.542 195.402L206.769 192.456L198.922 186.526C197.731 185.626 196.907 184.733 196.45 183.847C196.003 182.968 195.843 182.115 195.97 181.29C196.089 180.474 196.413 179.717 196.94 179.018C197.545 178.218 198.201 177.69 198.906 177.433C199.612 177.177 200.332 177.114 201.066 177.245C201.801 177.376 202.514 177.622 203.206 177.984C203.9 178.362 204.54 178.773 205.126 179.216L212.54 184.819L214.777 181.859L206.4 175.528C205.934 175.177 205.363 174.811 204.685 174.43C204.008 174.05 203.26 173.733 202.442 173.48C201.624 173.228 200.775 173.113 199.895 173.135C199.017 173.174 198.144 173.42 197.274 173.875C196.405 174.329 195.576 175.077 194.788 176.12Z" fill="#FF5372"/>
<path d="M188.403 185.957L185.496 188.205L192.72 197.551C193.505 198.566 193.863 199.601 193.795 200.657C193.717 201.72 193.221 202.605 192.307 203.311C191.384 204.025 190.408 204.278 189.378 204.072C188.346 203.881 187.413 203.246 186.578 202.166L179.431 192.893L176.538 195.13L183.748 204.486C184.619 205.612 184.975 206.693 184.818 207.729C184.651 208.773 184.157 209.612 183.335 210.247C182.431 210.946 181.466 211.205 180.441 211.024C179.417 210.843 178.49 210.217 177.663 209.146L170.473 199.818L167.58 202.055L175.304 212.076C176.546 213.682 177.989 214.623 179.633 214.9C181.269 215.184 182.889 214.706 184.495 213.464C185.474 212.708 186.192 211.806 186.651 210.759C187.116 209.72 187.287 208.644 187.164 207.531C188.146 207.981 189.17 208.133 190.237 207.986C191.301 207.857 192.35 207.392 193.384 206.593C194.28 205.901 194.962 205.086 195.431 204.148C195.899 203.226 196.137 202.275 196.146 201.295L197.387 202.901L199.963 200.91L188.403 185.957Z" fill="#FF5372"/>
<path d="M158.051 204.939C156.361 205.646 155.005 206.713 153.984 208.14C152.966 209.578 152.445 211.219 152.421 213.063L156.169 212.727C156.277 210.506 157.401 208.948 159.543 208.052C161.007 207.439 162.343 207.398 163.552 207.929C164.761 208.461 165.773 209.504 166.588 211.06L153.593 216.499C154.349 218.636 155.351 220.335 156.599 221.596C157.848 222.857 159.268 223.635 160.858 223.93C162.454 224.236 164.139 224.018 165.915 223.274C167.615 222.563 168.946 221.557 169.907 220.257C170.868 218.956 171.416 217.456 171.551 215.755C171.676 214.059 171.34 212.258 170.542 210.353C169.79 208.556 168.767 207.125 167.474 206.06C166.175 205.01 164.714 204.376 163.092 204.157C161.464 203.953 159.783 204.214 158.051 204.939ZM164.536 220.342C161.899 221.446 159.77 220.56 158.149 217.684L167.609 213.725C168.011 215.289 167.96 216.632 167.455 217.754C166.951 218.876 165.978 219.738 164.536 220.342Z" fill="#FF5372"/>
<path d="M139.87 219.55C139.259 219.647 138.769 219.944 138.399 220.44C138.019 220.949 137.883 221.538 137.989 222.206C138.096 222.874 138.407 223.386 138.925 223.741C139.432 224.109 139.991 224.244 140.602 224.147C141.27 224.041 141.8 223.732 142.191 223.221C142.572 222.723 142.71 222.14 142.604 221.472C142.497 220.803 142.185 220.286 141.666 219.92C141.137 219.567 140.538 219.443 139.87 219.55Z" fill="#FF5372"/>
<path d="M124.906 212.107L121.219 211.922L120.74 221.447C120.685 222.554 120.459 223.571 120.062 224.497C119.665 225.423 119.009 226.15 118.095 226.676C117.445 227.052 116.74 227.256 115.979 227.288C115.218 227.32 114.539 227.239 113.941 227.046L113.769 230.471C114.611 230.677 115.515 230.717 116.479 230.59C117.432 230.463 118.276 230.155 119.014 229.666C119.736 229.235 120.351 228.617 120.859 227.814L120.708 230.82L123.959 230.983L124.906 212.107Z" fill="#FF5372"/>
<path d="M105.118 209.182C103.333 208.771 101.609 208.846 99.9472 209.409C98.2823 209.983 96.9018 211.011 95.8054 212.494L99.0456 214.409C100.429 212.669 102.251 212.059 104.514 212.581C106.06 212.937 107.169 213.684 107.841 214.821C108.512 215.957 108.725 217.395 108.48 219.135L94.7528 215.969C94.1191 218.146 93.9415 220.11 94.2199 221.863C94.4983 223.615 95.1972 225.075 96.3167 226.243C97.4336 227.423 98.9299 228.229 100.806 228.661C102.602 229.076 104.269 229.035 105.808 228.54C107.347 228.045 108.668 227.146 109.771 225.844C110.862 224.539 111.639 222.88 112.103 220.868C112.541 218.97 112.545 217.211 112.117 215.591C111.674 213.981 110.858 212.613 109.668 211.489C108.465 210.373 106.948 209.604 105.118 209.182ZM101.397 225.475C98.6115 224.833 97.3996 222.871 97.7611 219.59L107.754 221.895C107.167 223.4 106.342 224.46 105.278 225.077C104.214 225.694 102.92 225.826 101.397 225.475Z" fill="#FF5372"/>
<path d="M88.9398 203.644C86.7621 202.655 84.8377 202.364 83.1665 202.771C81.4847 203.173 80.2579 204.224 79.4861 205.924C79.0809 206.816 78.9243 207.655 79.0163 208.44C79.0977 209.22 79.462 210.026 80.1093 210.858C80.7517 211.701 81.7108 212.636 82.9867 213.664C84.1814 214.616 85.0686 215.372 85.6481 215.93C86.2122 216.493 86.5585 216.958 86.6871 217.324C86.8108 217.7 86.7858 218.08 86.6122 218.462C86.3131 219.121 85.7658 219.494 84.9702 219.581C84.1698 219.679 83.2747 219.477 82.2848 218.977C81.2525 218.457 80.5179 217.803 80.0812 217.015C79.6397 216.238 79.5462 215.414 79.8007 214.543L76.1086 213.616C75.6052 215.232 75.7994 216.794 76.6912 218.301C77.5781 219.818 79.0095 221.026 80.9854 221.923C83.0037 222.839 84.8383 223.102 86.4892 222.712C88.1354 222.332 89.3129 221.361 90.022 219.799C90.4031 218.96 90.5481 218.161 90.457 217.402C90.3506 216.649 89.966 215.859 89.3033 215.033C88.63 214.202 87.6443 213.255 86.3462 212.191C85.1611 211.217 84.2947 210.459 83.7471 209.915C83.1994 209.372 82.8874 208.916 82.8109 208.549C82.7191 208.187 82.772 207.788 82.9698 207.352C83.3075 206.609 83.8702 206.159 84.658 206.005C85.4352 205.845 86.3443 206.002 87.3854 206.474C88.5326 206.995 89.3782 207.687 89.9221 208.549C90.4555 209.406 90.6233 210.334 90.4258 211.334L94.0745 212.356C94.5392 210.543 94.3227 208.875 93.4252 207.353C92.5276 205.83 91.0325 204.594 88.9398 203.644Z" fill="#FF5372"/>
<path d="M75.0084 195.604C73.9075 194.797 72.7887 194.28 71.6522 194.055C70.5062 193.822 69.4005 193.851 68.3349 194.14L69.6696 192.319L67.0443 190.395L55.8707 205.638L58.8488 207.821L64.6632 199.889C65.5461 198.685 66.4271 197.848 67.3063 197.379C68.1787 196.919 69.0285 196.746 69.8558 196.861C70.6737 196.968 71.4355 197.281 72.1412 197.798C72.9504 198.391 73.4884 199.039 73.7551 199.741C74.0218 200.442 74.095 201.161 73.9748 201.898C73.8545 202.634 73.6185 203.351 73.2668 204.048C72.8988 204.747 72.4975 205.393 72.0629 205.986L66.5692 213.481L69.5614 215.674L75.769 207.206C76.1139 206.735 76.4716 206.158 76.8421 205.475C77.2127 204.792 77.5183 204.04 77.759 203.218C77.9996 202.396 78.1023 201.546 78.067 200.666C78.0154 199.79 77.7562 198.92 77.2894 198.057C76.8226 197.194 76.0622 196.376 75.0084 195.604Z" fill="#FF5372"/>
<path d="M65.1818 189.467L62.8815 186.601L53.6691 193.995C52.6682 194.798 51.6394 195.175 50.5825 195.126C49.5183 195.067 48.6248 194.588 47.9019 193.687C47.1716 192.777 46.9004 191.805 47.0883 190.772C47.2598 189.737 47.8778 188.792 48.9424 187.938L58.0839 180.623L55.7946 177.771L46.5712 185.151C45.4611 186.042 44.3867 186.418 43.3479 186.279C42.3019 186.132 41.4539 185.653 40.804 184.843C40.0883 183.951 39.8117 182.992 39.9741 181.964C40.1364 180.936 40.7454 179.998 41.8008 179.151L50.9969 171.793L48.7076 168.941L38.8291 176.846C37.2459 178.117 36.3308 179.577 36.0838 181.226C35.8295 182.867 36.3376 184.478 37.6082 186.061C38.3823 187.026 39.2971 187.728 40.3528 188.167C41.3993 188.614 42.4782 188.765 43.5894 188.621C43.1573 189.611 43.0241 190.638 43.1897 191.702C43.339 192.764 43.8225 193.805 44.6404 194.824C45.3487 195.706 46.1761 196.374 47.1224 196.826C48.0523 197.276 49.0074 197.497 49.9877 197.488L48.4045 198.759L50.4418 201.297L65.1818 189.467Z" fill="#FF5372"/>
<path d="M45.665 159.472C44.9264 157.796 43.8343 156.461 42.3887 155.466C40.9324 154.476 39.282 153.985 37.4376 153.995L37.8434 157.736C40.0655 157.803 41.6446 158.898 42.5808 161.023C43.2206 162.475 43.2863 163.81 42.7778 165.028C42.2694 166.247 41.245 167.278 39.7048 168.123L34.0239 155.232C31.901 156.027 30.221 157.06 28.9838 158.332C27.7467 159.604 26.9953 161.038 26.7297 162.634C26.4533 164.235 26.7033 165.916 27.4796 167.677C28.2229 169.364 29.2535 170.676 30.5713 171.612C31.8892 172.549 33.3997 173.069 35.1028 173.172C36.8011 173.265 38.5952 172.896 40.4848 172.063C42.2677 171.277 43.6795 170.228 44.7201 168.915C45.7454 167.596 46.3524 166.124 46.5411 164.498C46.7145 162.866 46.4225 161.191 45.665 159.472ZM30.3857 166.244C29.2331 163.628 30.0791 161.483 32.9238 159.809L37.0592 169.193C35.5025 169.624 34.1587 169.598 33.0277 169.115C31.8968 168.631 31.0161 167.674 30.3857 166.244Z" fill="#FF5372"/>
<path d="M30.7351 141.589C30.6285 140.98 30.3245 140.494 29.8229 140.132C29.3078 139.76 28.7169 139.632 28.0504 139.749C27.3838 139.866 26.8772 140.185 26.5304 140.708C26.17 141.221 26.0432 141.782 26.1497 142.391C26.2663 143.058 26.5832 143.583 27.1003 143.966C27.6039 144.34 28.189 144.468 28.8555 144.352C29.522 144.235 30.0345 143.914 30.3928 143.39C30.7376 142.856 30.8517 142.256 30.7351 141.589Z" fill="#FF5372"/>
<path d="M37.896 126.465L38.0243 122.775L28.4925 122.443C27.3848 122.405 26.3649 122.194 25.4326 121.812C24.5003 121.429 23.7639 120.785 23.2234 119.879C22.8372 119.235 22.6223 118.533 22.5786 117.773C22.535 117.012 22.6054 116.332 22.7897 115.731L19.3617 115.612C19.1689 116.458 19.1433 117.361 19.285 118.324C19.4271 119.274 19.7481 120.114 20.2481 120.844C20.6902 121.559 21.317 122.165 22.1286 122.66L19.1205 122.555L19.0074 125.808L37.896 126.465Z" fill="#FF5372"/>
<path d="M40.4414 106.797C40.8189 105.004 40.7105 103.283 40.1164 101.631C39.5108 99.9778 38.4561 98.6171 36.9522 97.5492L35.0998 100.825C36.8663 102.175 37.5103 103.986 37.0318 106.258C36.7049 107.81 35.9795 108.933 34.8559 109.626C33.7322 110.32 32.2985 110.56 30.5548 110.348L33.458 96.563C31.2697 95.971 29.3022 95.8308 27.5554 96.1425C25.8087 96.4543 24.3621 97.1809 23.2155 98.3225C22.0576 99.4616 21.2803 100.973 20.8836 102.857C20.5037 104.66 20.576 106.327 21.1004 107.856C21.6249 109.385 22.5486 110.689 23.8716 111.766C25.197 112.832 26.8701 113.578 28.8908 114.004C30.7973 114.405 32.556 114.376 34.167 113.917C35.7689 113.443 37.1206 112.601 38.2221 111.391C39.3145 110.166 40.0543 108.635 40.4414 106.797ZM24.0804 103.387C24.6695 100.59 26.6076 99.3409 29.8949 99.6397L27.7816 109.675C26.2656 109.117 25.1893 108.312 24.5524 107.26C23.9156 106.208 23.7582 104.917 24.0804 103.387Z" fill="#FF5372"/>
<path d="M45.5641 90.7179C46.5122 88.5222 46.7671 86.5926 46.3289 84.9293C45.8953 83.2553 44.8217 82.0483 43.108 81.3083C42.2082 80.9198 41.3668 80.7789 40.5837 80.8855C39.8053 80.9815 39.0061 81.3607 38.1863 82.0233C37.3557 82.6813 36.4385 83.6577 35.4346 84.9525C34.5045 86.1648 33.766 87.0659 33.219 87.6557C32.666 88.2302 32.2077 88.5851 31.8443 88.7205C31.4702 88.8512 31.0903 88.8333 30.7047 88.6668C30.0406 88.3801 29.6576 87.8398 29.5556 87.046C29.4429 86.2476 29.6276 85.3488 30.1098 84.3498C30.6105 83.3079 31.2506 82.5613 32.03 82.11C32.7988 81.6541 33.6209 81.5452 34.4965 81.7835L35.3545 78.0748C33.7289 77.6016 32.1711 77.8249 30.6811 78.7446C29.1804 79.6596 28 81.1133 27.1398 83.1055C26.261 85.1405 26.0324 86.9797 26.4538 88.6231C26.8645 90.2618 27.8571 91.4211 29.4316 92.101C30.2777 92.4663 31.0793 92.5964 31.8364 92.4913C32.5873 92.3708 33.3697 91.9715 34.1834 91.2936C35.0018 90.6049 35.9306 89.6017 36.9698 88.284C37.9213 87.081 38.6636 86.2006 39.1967 85.6429C39.7298 85.0852 40.1795 84.7648 40.5458 84.6815C40.9061 84.5829 41.3058 84.6284 41.745 84.818C42.4947 85.1418 42.9543 85.6961 43.1238 86.4809C43.2978 87.2549 43.1582 88.1668 42.705 89.2165C42.2055 90.3733 41.5299 91.2316 40.6782 91.7915C39.8311 92.3407 38.9061 92.5258 37.9031 92.3469L36.9487 96.014C38.7705 96.4448 40.4341 96.1974 41.9394 95.2716C43.4448 94.3458 44.653 92.8279 45.5641 90.7179Z" fill="#FF5372"/>
<path d="M53.3624 76.4908C54.1491 75.3754 54.6449 74.2474 54.8497 73.1069C55.0611 71.9569 55.0125 70.8519 54.7037 69.7918L56.5485 71.0929L58.4246 68.433L42.9797 57.5396L40.8515 60.5571L48.8885 66.2257C50.1089 67.0864 50.9617 67.952 51.447 68.8225C51.9228 69.6863 52.1109 70.5328 52.0115 71.3621C51.9187 72.1818 51.6202 72.9492 51.1158 73.6643C50.5376 74.4842 49.9 75.0339 49.2032 75.3134C48.5064 75.5928 47.7888 75.6792 47.0504 75.5724C46.3119 75.4656 45.5911 75.2427 44.8879 74.9038C44.1819 74.5486 43.5286 74.1592 42.9279 73.7356L35.3342 68.3797L33.1959 71.4114L41.7764 77.4633C42.2531 77.7995 42.8363 78.1466 43.526 78.5046C44.2158 78.8626 44.9737 79.1544 45.7996 79.3801C46.6255 79.6057 47.4778 79.6928 48.3563 79.6415C49.2321 79.5738 50.0971 79.2988 50.9513 78.8163C51.8056 78.3338 52.6093 77.5586 53.3624 76.4908Z" fill="#FF5372"/>
<path d="M59.5176 66.2521L62.3499 63.9104L54.8229 54.8066C54.0051 53.8176 53.6132 52.7943 53.6472 51.7368C53.6902 50.672 54.1567 49.7715 55.0468 49.0355C55.946 48.2921 56.9136 48.0068 57.9496 48.1796C58.9871 48.336 59.9408 48.9402 60.8106 49.9922L68.2573 59.0262L71.0761 56.6956L63.5625 47.5807C62.6555 46.4837 62.2638 45.4149 62.3874 44.3742C62.5199 43.3261 62.9862 42.4712 63.7865 41.8096C64.6676 41.081 65.6233 40.7905 66.6534 40.9378C67.6835 41.0852 68.6298 41.6804 69.4922 42.7234L76.9834 51.8114L79.8022 49.4808L71.7534 39.7185C70.4599 38.154 68.9867 37.2602 67.334 37.0372C65.6902 36.8068 64.0861 37.3384 62.5216 38.6319C61.5685 39.4199 60.88 40.3449 60.4562 41.4068C60.0249 42.4598 59.8892 43.5407 60.0493 44.6497C59.053 44.2321 58.0243 44.1139 56.963 44.295C55.9033 44.4597 54.8699 44.9583 53.8629 45.791C52.9907 46.5121 52.3354 47.349 51.8971 48.3019C51.4603 49.2383 51.2534 50.1965 51.2765 51.1765L49.983 49.612L47.4744 51.6861L59.5176 66.2521Z" fill="#FF5372"/>
<path d="M88.7669 46.4545C90.429 45.6848 91.744 44.568 92.7117 43.1041C93.6746 41.6297 94.1341 39.9705 94.0902 38.1266L90.3568 38.6019C90.3319 40.8248 89.2661 42.4241 87.1594 43.3997C85.7196 44.0664 84.3859 44.157 83.1581 43.6713C81.9303 43.1856 80.88 42.1806 80.0069 40.6564L92.7902 34.7365C91.9556 32.6287 90.8909 30.9683 89.5962 29.755C88.3015 28.5417 86.8538 27.8172 85.2532 27.5813C83.6477 27.3348 81.9715 27.616 80.2247 28.425C78.552 29.1996 77.2598 30.2544 76.3481 31.5895C75.4364 32.9245 74.9445 34.4444 74.8726 36.1492C74.8112 37.849 75.2144 39.6358 76.0822 41.5096C76.9009 43.2776 77.9762 44.6696 79.3081 45.6856C80.6458 46.6861 82.1291 47.2656 83.7582 47.4241C85.3929 47.567 87.0625 47.2438 88.7669 46.4545ZM81.7122 31.3039C84.3059 30.1028 86.4663 30.9087 88.1933 33.7218L78.8877 38.0312C78.4277 36.4827 78.4289 35.1387 78.891 33.9989C79.3532 32.8592 80.2936 31.9609 81.7122 31.3039Z" fill="#FF5372"/>
<path d="M106.286 31.1288C106.893 31.0107 107.373 30.6974 107.725 30.1889C108.087 29.6668 108.204 29.0736 108.074 28.4094C107.945 27.7453 107.616 27.2448 107.087 26.908C106.567 26.5576 106.003 26.4415 105.396 26.5596C104.732 26.6889 104.213 27.0158 103.84 27.5401C103.476 28.0508 103.359 28.6382 103.488 29.3024C103.617 29.9666 103.947 30.4728 104.479 30.821C105.019 31.1555 105.622 31.2581 106.286 31.1288Z" fill="#FF5372"/>
<path d="M121.522 37.9353L125.215 37.9923L125.362 28.4559C125.379 27.3477 125.57 26.3239 125.934 25.3844C126.299 24.4449 126.929 23.6962 127.824 23.1383C128.46 22.7397 129.158 22.5113 129.918 22.453C130.677 22.3948 131.359 22.452 131.963 22.6246L132.016 19.195C131.167 19.0186 130.262 19.0105 129.303 19.1707C128.356 19.3311 127.522 19.6682 126.802 20.1822C126.095 20.638 125.502 21.2764 125.022 22.0974L125.069 19.0878L121.814 19.0375L121.522 37.9353Z" fill="#FF5372"/>
<path d="M141.927 40.1775C143.725 40.5275 145.445 40.3929 147.087 39.7736C148.731 39.1429 150.076 38.0675 151.121 36.5475L147.817 34.7454C146.494 36.5322 144.693 37.2038 142.415 36.7601C140.857 36.4569 139.723 35.7488 139.013 34.6358C138.302 33.5229 138.04 32.093 138.226 30.3463L152.053 33.0386C152.612 30.8415 152.722 28.8721 152.384 27.1303C152.045 25.3885 151.297 23.9532 150.138 22.8242C148.981 21.6838 147.458 20.9297 145.568 20.5618C143.759 20.2095 142.094 20.3072 140.573 20.8549C139.052 21.4027 137.763 22.3462 136.705 23.6855C135.66 25.0271 134.94 26.7113 134.545 28.7383C134.173 30.6507 134.229 32.4088 134.713 34.0125C135.21 35.6071 136.073 36.9457 137.3 38.0286C138.541 39.1022 140.084 39.8185 141.927 40.1775ZM145.087 23.7663C147.893 24.3126 149.171 26.2315 148.923 29.523L138.857 27.5631C139.391 26.0388 140.179 24.9503 141.222 24.2974C142.264 23.6446 143.553 23.4676 145.087 23.7663Z" fill="#FF5372"/>
<path d="M158.113 45.0679C160.322 45.9831 162.256 46.2092 163.912 45.7462C165.579 45.2876 166.77 44.1961 167.485 42.4715C167.86 41.5661 167.988 40.7227 167.87 39.9412C167.762 39.1643 167.371 38.3709 166.696 37.561C166.026 36.7404 165.036 35.8379 163.726 34.8535C162.5 33.9416 161.588 33.2166 160.99 32.6785C160.407 32.1341 160.046 31.6812 159.905 31.3198C159.769 30.9477 159.781 30.5676 159.942 30.1796C160.218 29.5113 160.753 29.1202 161.545 29.0063C162.342 28.8817 163.243 29.053 164.249 29.5202C165.299 30.0053 166.055 30.6342 166.517 31.4068C166.985 32.1686 167.106 32.9891 166.881 33.8681L170.602 34.6706C171.051 33.0381 170.804 31.4839 169.862 30.0078C168.925 28.5209 167.454 27.3623 165.449 26.5319C163.401 25.6837 161.559 25.4825 159.922 25.9284C158.289 26.3636 157.145 27.3734 156.489 28.9578C156.136 29.8093 156.018 30.6128 156.135 31.3682C156.266 32.1173 156.677 32.8936 157.367 33.6971C158.068 34.5051 159.085 35.4188 160.418 36.4382C161.635 37.3716 162.526 38.1007 163.092 38.6254C163.658 39.1501 163.985 39.595 164.073 39.9601C164.177 40.3188 164.138 40.7192 163.955 41.1611C163.642 41.9156 163.095 42.3834 162.313 42.5646C161.541 42.7502 160.628 42.6242 159.571 42.1867C158.407 41.7046 157.539 41.0419 156.966 40.1986C156.405 39.3598 156.206 38.4376 156.369 37.4321L152.689 36.5326C152.285 38.3607 152.557 40.0203 153.505 41.5117C154.454 43.003 155.989 44.1884 158.113 45.0679Z" fill="#FF5372"/>
<path d="M172.053 52.3909C173.183 53.1571 174.32 53.6322 175.464 53.816C176.618 54.0064 177.722 53.9376 178.776 53.6095L177.509 55.4778L180.203 57.3049L190.812 41.6633L187.756 39.5906L182.235 47.73C181.397 48.9659 180.547 49.8344 179.685 50.3356C178.83 50.8271 177.988 51.0307 177.157 50.9464C176.335 50.8686 175.563 50.5842 174.838 50.093C174.008 49.5298 173.447 48.9025 173.155 48.2109C172.862 47.5193 172.763 46.8034 172.856 46.0631C172.95 45.3229 173.159 44.5981 173.485 43.8888C173.827 43.1764 174.205 42.5161 174.617 41.9078L179.833 34.2174L176.763 32.1348L170.869 40.8246C170.542 41.3074 170.205 41.8969 169.86 42.593C169.515 43.2892 169.237 44.0523 169.026 44.8822C168.816 45.7122 168.744 46.5659 168.812 47.4433C168.895 48.3177 169.186 49.1775 169.684 50.0228C170.182 50.8681 170.972 51.6575 172.053 52.3909Z" fill="#FF5372"/>
<path d="M182.491 58.3944L184.884 61.1836L193.849 53.4922C194.823 52.6566 195.839 52.2461 196.897 52.2609C197.962 52.2844 198.871 52.7345 199.623 53.6111C200.383 54.4966 200.686 55.4588 200.532 56.4978C200.394 57.538 199.808 58.5026 198.772 59.3913L189.875 67.0011L192.256 69.7771L201.233 62.0989C202.313 61.1721 203.375 60.761 204.417 60.8656C205.468 60.979 206.331 61.4298 207.007 62.2178C207.751 63.0856 208.059 64.0358 207.931 65.0684C207.802 66.1011 207.224 67.058 206.197 67.9392L197.247 75.5946L199.628 78.3705L209.243 70.1454C210.783 68.8236 211.65 67.3344 211.843 65.6779C212.044 64.0302 211.483 62.436 210.161 60.8953C209.356 59.9567 208.419 59.2852 207.349 58.8808C206.288 58.4687 205.205 58.3528 204.099 58.5329C204.499 57.5293 204.598 56.4985 204.398 55.4407C204.214 54.3842 203.696 53.36 202.846 52.3683C202.109 51.5094 201.26 50.8695 200.299 50.4485C199.355 50.0288 198.393 49.8394 197.414 49.8804L198.955 48.5586L196.835 46.0881L182.491 58.3944Z" fill="#FF5372"/>
<path d="M203.104 87.8252C203.898 89.4757 205.034 90.7739 206.512 91.7198C208.001 92.6606 209.667 93.0954 211.51 93.0241L210.979 89.2982C208.756 89.3064 207.141 88.2645 206.134 86.1725C205.446 84.7428 205.336 83.4105 205.803 82.1756C206.271 80.9408 207.26 79.8756 208.771 78.98L214.88 91.6739C216.975 90.808 218.62 89.7187 219.814 88.4061C221.008 87.0935 221.71 85.6353 221.923 84.0313C222.145 82.4223 221.839 80.7505 221.004 79.0159C220.205 77.3549 219.131 76.0785 217.782 75.1868C216.434 74.295 214.907 73.8258 213.201 73.7792C211.501 73.7431 209.72 74.1728 207.859 75.0683C206.104 75.9133 204.728 77.0092 203.732 78.3561C202.751 79.7084 202.194 81.2002 202.06 82.8314C201.941 84.4681 202.289 86.1327 203.104 87.8252ZM218.148 80.546C219.387 83.1216 218.613 85.2937 215.826 87.0623L211.379 77.8218C212.921 77.3389 214.265 77.3201 215.411 77.7652C216.557 78.2104 217.47 79.1374 218.148 80.546Z" fill="#FF5372"/>
<path d="M218.637 105.146C218.764 105.751 219.085 106.226 219.598 106.571C220.126 106.924 220.721 107.032 221.383 106.892C222.045 106.753 222.541 106.416 222.869 105.882C223.212 105.357 223.319 104.791 223.192 104.186C223.052 103.524 222.718 103.011 222.188 102.645C221.671 102.289 221.082 102.181 220.42 102.32C219.758 102.459 219.257 102.797 218.917 103.334C218.591 103.88 218.497 104.484 218.637 105.146Z" fill="#FF5372"/>
</svg>
